<svg width="684" height="418" xmlns="http://www.w3.org/2000/svg" xmlns:xlink="http://www.w3.org/1999/xlink" overflow="hidden"><defs><clipPath id="clip0"><path d="M304 90 988 90 988 508 304 508Z" fill-rule="evenodd" clip-rule="evenodd"/></clipPath><clipPath id="clip1"><path d="M450 129 677 129 677 507 450 507Z" fill-rule="evenodd" clip-rule="evenodd"/></clipPath><clipPath id="clip2"><path d="M468 158 660 158 660 493 468 493Z" fill-rule="evenodd" clip-rule="evenodd"/></clipPath><clipPath id="clip3"><path d="M468 158 660 158 660 493 468 493Z" fill-rule="evenodd" clip-rule="evenodd"/></clipPath><clipPath id="clip4"><path d="M450 129 677 129 677 507 450 507Z" fill-rule="evenodd" clip-rule="evenodd"/></clipPath><clipPath id="clip5"><path d="M450 129 677 129 677 507 450 507Z" fill-rule="evenodd" clip-rule="evenodd"/></clipPath><clipPath id="clip6"><path d="M450 129 677 129 677 507 450 507Z" fill-rule="evenodd" clip-rule="evenodd"/></clipPath><clipPath id="clip7"><path d="M450 129 677 129 677 507 450 507Z" fill-rule="evenodd" clip-rule="evenodd"/></clipPath><clipPath id="clip8"><path d="M450 129 677 129 677 507 450 507Z" fill-rule="evenodd" clip-rule="evenodd"/></clipPath><clipPath id="clip9"><path d="M450 129 677 129 677 507 450 507Z" fill-rule="evenodd" clip-rule="evenodd"/></clipPath><clipPath id="clip10"><path d="M664 129 891 129 891 507 664 507Z" fill-rule="evenodd" clip-rule="evenodd"/></clipPath><clipPath id="clip11"><path d="M682 158 874 158 874 493 682 493Z" fill-rule="evenodd" clip-rule="evenodd"/></clipPath><clipPath id="clip12"><path d="M682 158 874 158 874 493 682 493Z" fill-rule="evenodd" clip-rule="evenodd"/></clipPath><clipPath id="clip13"><path d="M664 129 891 129 891 507 664 507Z" fill-rule="evenodd" clip-rule="evenodd"/></clipPath><clipPath id="clip14"><path d="M664 129 891 129 891 507 664 507Z" fill-rule="evenodd" clip-rule="evenodd"/></clipPath><clipPath id="clip15"><path d="M664 129 891 129 891 507 664 507Z" fill-rule="evenodd" clip-rule="evenodd"/></clipPath><clipPath id="clip16"><path d="M664 129 891 129 891 507 664 507Z" fill-rule="evenodd" clip-rule="evenodd"/></clipPath><clipPath id="clip17"><path d="M664 129 891 129 891 507 664 507Z" fill-rule="evenodd" clip-rule="evenodd"/></clipPath><clipPath id="clip18"><path d="M664 129 891 129 891 507 664 507Z" fill-rule="evenodd" clip-rule="evenodd"/></clipPath></defs><g clip-path="url(#clip0)" transform="translate(-304 -90)"><g clip-path="url(#clip1)"><path d="M563.5 158.5 563.5 492.5M659.5 158.5 659.5 492.5" stroke="#D9D9D9" stroke-width="0.666667" stroke-linejoin="round" stroke-miterlimit="10" fill="none"/></g><g clip-path="url(#clip2)"><path d="M657 487 468 487 468 481 657 481ZM656 465 468 465 468 459 656 459ZM641 443 468 443 468 437 641 437ZM656 420 468 420 468 415 656 415ZM657 398 468 398 468 392 657 392ZM653 376 468 376 468 370 653 370ZM658 354 468 354 468 348 658 348ZM658 331 468 331 468 326 658 326ZM657 309 468 309 468 303 657 303ZM656 287 468 287 468 281 656 281ZM651 265 468 265 468 259 651 259ZM654 242 468 242 468 236 654 236ZM634 220 468 220 468 214 634 214ZM656 198 468 198 468 192 656 192ZM656 176 468 176 468 170 656 170Z" fill="#5B9BD5"/></g><g clip-path="url(#clip3)"><path d="M522 481 468 481 468 476 522 476ZM525 459 468 459 468 453 525 453ZM512 437 468 437 468 431 512 431ZM531 415 468 415 468 409 531 409ZM536 392 468 392 468 387 536 387ZM543 370 468 370 468 364 543 364ZM526 348 468 348 468 342 526 342ZM549 326 468 326 468 320 549 320ZM518 303 468 303 468 297 518 297ZM540 281 468 281 468 275 540 275ZM514 259 468 259 468 253 514 253ZM522 236 468 236 468 231 522 231ZM513 214 468 214 468 208 513 208ZM520 192 468 192 468 186 520 186ZM535 170 468 170 468 164 535 164Z" fill="#F4B183"/></g><g clip-path="url(#clip4)"><path d="M468.5 158.5 659.5 158.5" stroke="#000000" stroke-width="0.666667" stroke-linejoin="round" stroke-miterlimit="10" fill="none" fill-rule="evenodd"/></g><g clip-path="url(#clip5)"><path d="M468.5 155.5 468.5 158.5M487.5 155.5 487.5 158.5M506.5 155.5 506.5 158.5M525.5 155.5 525.5 158.5M544.5 155.5 544.5 158.5M563.5 155.5 563.5 158.5M582.5 155.5 582.5 158.5M601.5 155.5 601.5 158.5M621.5 155.5 621.5 158.5M640.5 155.5 640.5 158.5M659.5 155.5 659.5 158.5M468.5 154.5 468.5 158.5M563.5 154.5 563.5 158.5M659.5 154.5 659.5 158.5" stroke="#000000" stroke-width="0.666667" stroke-linejoin="round" stroke-miterlimit="10" fill="none"/></g><g clip-path="url(#clip6)"><path d="M0 0 0.000104987 334" stroke="#000000" stroke-width="0.666667" stroke-linejoin="round" stroke-miterlimit="10" fill="none" fill-rule="evenodd" transform="matrix(1 0 0 -1 468.5 492.5)"/></g><g clip-path="url(#clip7)"><text fill="#595959" font-family="Arial,Arial_MSFontService,sans-serif" font-weight="400" transform="translate(465.067 148)">0</text></g><g clip-path="url(#clip8)"><text fill="#595959" font-family="Arial,Arial_MSFontService,sans-serif" font-weight="400" transform="translate(555.446 148)">0.5</text></g><g clip-path="url(#clip9)"><text fill="#595959" font-family="Arial,Arial_MSFontService,sans-serif" font-weight="400" transform="translate(655.831 148)">1</text></g><g clip-path="url(#clip10)"><path d="M777.5 158.5 777.5 492.5M873.5 158.5 873.5 492.5" stroke="#D9D9D9" stroke-width="0.666667" stroke-linejoin="round" stroke-miterlimit="10" fill="none"/></g><g clip-path="url(#clip11)"><path d="M867 487 682 487 682 481 867 481ZM867 465 682 465 682 459 867 459ZM860 443 682 443 682 437 860 437ZM865 420 682 420 682 415 865 415ZM869 398 682 398 682 392 869 392ZM863 376 682 376 682 370 863 370ZM868 354 682 354 682 348 868 348ZM871 331 682 331 682 326 871 326ZM864 309 682 309 682 303 864 303ZM869 287 682 287 682 281 869 281ZM861 265 682 265 682 259 861 259ZM864 242 682 242 682 236 864 236ZM846 220 682 220 682 214 846 214ZM868 198 682 198 682 192 868 192ZM866 176 682 176 682 170 866 170Z" fill="#5B9BD5"/></g><g clip-path="url(#clip12)"><path d="M871 481 682 481 682 476 871 476ZM871 459 682 459 682 453 871 453ZM873 437 682 437 682 431 873 431ZM870 415 682 415 682 409 870 409ZM871 392 682 392 682 387 871 387ZM868 370 682 370 682 364 868 364ZM872 348 682 348 682 342 872 342ZM872 326 682 326 682 320 872 320ZM872 303 682 303 682 297 872 297ZM872 281 682 281 682 275 872 275ZM872 259 682 259 682 253 872 253ZM870 236 682 236 682 231 870 231ZM872 214 682 214 682 208 872 208ZM873 192 682 192 682 186 873 186ZM870 170 682 170 682 164 870 164Z" fill="#F4B183"/></g><g clip-path="url(#clip13)"><path d="M682.5 158.5 873.5 158.5" stroke="#000000" stroke-width="0.666667" stroke-linejoin="round" stroke-miterlimit="10" fill="none" fill-rule="evenodd"/></g><g clip-path="url(#clip14)"><path d="M682.5 155.5 682.5 158.5M701.5 155.5 701.5 158.5M720.5 155.5 720.5 158.5M739.5 155.5 739.5 158.5M758.5 155.5 758.5 158.5M777.5 155.5 777.5 158.5M796.5 155.5 796.5 158.5M815.5 155.5 815.5 158.5M835.5 155.5 835.5 158.5M854.5 155.5 854.5 158.5M873.5 155.5 873.5 158.5M682.5 154.5 682.5 158.5M777.5 154.5 777.5 158.5M873.5 154.5 873.5 158.5" stroke="#000000" stroke-width="0.666667" stroke-linejoin="round" stroke-miterlimit="10" fill="none"/></g><g clip-path="url(#clip15)"><path d="M0 0 0.000104987 334" stroke="#000000" stroke-width="0.666667" stroke-linejoin="round" stroke-miterlimit="10" fill="none" fill-rule="evenodd" transform="matrix(1 0 0 -1 682.5 492.5)"/></g><g clip-path="url(#clip16)"><text fill="#595959" font-family="Arial,Arial_MSFontService,sans-serif" font-weight="400" transform="translate(679.074 148)">0</text></g><g clip-path="url(#clip17)"><text fill="#595959" font-family="Arial,Arial_MSFontService,sans-serif" font-weight="400" transform="translate(769.453 148)">0.5</text></g><g clip-path="url(#clip18)"><text fill="#595959" font-family="Arial,Arial_MSFontService,sans-serif" font-weight="400" transform="translate(869.839 148)">1</text></g><text fill="#404040" font-family="Arial,Arial_MSFontService,sans-serif" font-weight="700" font-size="15" transform="translate(530.786 109)">Precision<tspan font-size="12" x="-42" y="15">(Positive Predictive Value)</tspan><tspan x="225.626" y="0">Recall</tspan><tspan font-size="12" x="213.206" y="15">(Sensitivity)</tspan><tspan fill="#F4B183" font-size="13" x="383.405" y="61">ORFfinder</tspan></text><rect x="900" y="159" width="11" height="12" fill="#F4B183"/><rect x="900" y="175" width="11" height="12" fill="#5B9BD5"/><text fill="#5B9BD5" font-family="Arial,Arial_MSFontService,sans-serif" font-weight="700" font-size="13" transform="translate(914.191 186)">LSTM<tspan fill="#595959" font-style="italic" font-weight="400" font-size="12" x="-586.069" y="-11">Acinetobacter </tspan><tspan fill="#595959" font-style="italic" font-weight="400" font-size="12" x="-509.403" y="-11">baumannii</tspan><tspan fill="#595959" font-style="italic" font-weight="400" font-size="12" x="-574.625" y="11">Klebsiella pneumoniae</tspan><tspan fill="#595959" font-style="italic" font-weight="400" font-size="12" x="-581.357" y="33">Streptomyces </tspan><tspan fill="#595959" font-style="italic" font-weight="400" font-size="12" x="-504.69" y="33">coelicolor</tspan><tspan fill="#595959" font-style="italic" font-weight="400" font-size="12" x="-559.309" y="55">Salmonella enterica</tspan><tspan fill="#595959" font-style="italic" font-weight="400" font-size="12" x="-602.732" y="78">Mycobacterium tuberculosis</tspan><tspan fill="#595959" font-style="italic" font-weight="400" font-size="12" x="-577.991" y="100">Staphylococcus aureus</tspan><tspan fill="#595959" font-style="italic" font-weight="400" font-size="12" x="-591.288" y="122">Porphyromonas</tspan><tspan fill="#595959" font-style="italic" font-weight="400" font-size="12" x="-503.288" y="122">gingivalis</tspan><tspan fill="#595959" font-style="italic" font-weight="400" font-size="12" x="-566.041" y="145">Clostridioides</tspan><tspan fill="#595959" font-style="italic" font-weight="400" font-size="12" x="-490.707" y="145">difficile</tspan><tspan fill="#595959" font-style="italic" font-weight="400" font-size="12" x="-535.408" y="167">Bacillus subtilis</tspan><tspan fill="#595959" font-style="italic" font-weight="400" font-size="12" x="-552.744" y="189">Helicobacter pylori</tspan><tspan fill="#595959" font-style="italic" font-weight="400" font-size="12" x="-570.753" y="211">Enterococcus faecalis</tspan><tspan fill="#595959" font-style="italic" font-weight="400" font-size="12" x="-599.366" y="234">Streptococcus pneumoniae</tspan><tspan fill="#595959" font-style="italic" font-weight="400" font-size="12" x="-593.308" y="256">Pseudomonas aeruginosa</tspan><tspan fill="#595959" font-style="italic" font-weight="400" font-size="12" x="-534.062" y="278">Vibrio cholerae</tspan><tspan fill="#595959" font-style="italic" font-weight="400" font-size="12" x="-537.427" y="301">Escherichia coli</tspan></text></g></svg>