<svg width="558" height="586" xmlns="http://www.w3.org/2000/svg" xmlns:xlink="http://www.w3.org/1999/xlink" overflow="hidden"><defs><clipPath id="clip0"><path d="M396 56 954 56 954 642 396 642Z" fill-rule="evenodd" clip-rule="evenodd"/></clipPath><clipPath id="clip1"><path d="M413 104 866 104 866 369 413 369Z" fill-rule="evenodd" clip-rule="evenodd"/></clipPath><clipPath id="clip2"><path d="M413 104 866 104 866 369 413 369Z" fill-rule="evenodd" clip-rule="evenodd"/></clipPath><clipPath id="clip3"><path d="M413 104 866 104 866 369 413 369Z" fill-rule="evenodd" clip-rule="evenodd"/></clipPath><clipPath id="clip4"><path d="M413 104 866 104 866 369 413 369Z" fill-rule="evenodd" clip-rule="evenodd"/></clipPath><clipPath id="clip5"><path d="M413 104 866 104 866 369 413 369Z" fill-rule="evenodd" clip-rule="evenodd"/></clipPath><clipPath id="clip6"><path d="M413 104 866 104 866 369 413 369Z" fill-rule="evenodd" clip-rule="evenodd"/></clipPath><clipPath id="clip7"><path d="M413 104 866 104 866 369 413 369Z" fill-rule="evenodd" clip-rule="evenodd"/></clipPath><clipPath id="clip8"><path d="M413 104 866 104 866 369 413 369Z" fill-rule="evenodd" clip-rule="evenodd"/></clipPath><clipPath id="clip9"><path d="M462 119 846 119 846 341 462 341Z" fill-rule="evenodd" clip-rule="evenodd"/></clipPath><clipPath id="clip10"><path d="M413 104 866 104 866 369 413 369Z" fill-rule="evenodd" clip-rule="evenodd"/></clipPath><clipPath id="clip11"><path d="M462 119 846 119 846 341 462 341Z" fill-rule="evenodd" clip-rule="evenodd"/></clipPath><clipPath id="clip12"><path d="M413 104 866 104 866 369 413 369Z" fill-rule="evenodd" clip-rule="evenodd"/></clipPath><clipPath id="clip13"><path d="M413 104 866 104 866 369 413 369Z" fill-rule="evenodd" clip-rule="evenodd"/></clipPath><clipPath id="clip14"><path d="M413 104 866 104 866 369 413 369Z" fill-rule="evenodd" clip-rule="evenodd"/></clipPath><clipPath id="clip15"><path d="M413 104 866 104 866 369 413 369Z" fill-rule="evenodd" clip-rule="evenodd"/></clipPath><clipPath id="clip16"><path d="M413 104 866 104 866 369 413 369Z" fill-rule="evenodd" clip-rule="evenodd"/></clipPath><clipPath id="clip17"><path d="M413 104 866 104 866 369 413 369Z" fill-rule="evenodd" clip-rule="evenodd"/></clipPath><clipPath id="clip18"><path d="M413 104 866 104 866 369 413 369Z" fill-rule="evenodd" clip-rule="evenodd"/></clipPath><clipPath id="clip19"><path d="M413 104 866 104 866 369 413 369Z" fill-rule="evenodd" clip-rule="evenodd"/></clipPath><clipPath id="clip20"><path d="M413 104 866 104 866 369 413 369Z" fill-rule="evenodd" clip-rule="evenodd"/></clipPath><clipPath id="clip21"><path d="M413 104 866 104 866 369 413 369Z" fill-rule="evenodd" clip-rule="evenodd"/></clipPath><clipPath id="clip22"><path d="M413 104 866 104 866 369 413 369Z" fill-rule="evenodd" clip-rule="evenodd"/></clipPath><clipPath id="clip23"><path d="M413 104 866 104 866 369 413 369Z" fill-rule="evenodd" clip-rule="evenodd"/></clipPath><clipPath id="clip24"><path d="M413 104 866 104 866 369 413 369Z" fill-rule="evenodd" clip-rule="evenodd"/></clipPath><clipPath id="clip25"><path d="M413 104 866 104 866 369 413 369Z" fill-rule="evenodd" clip-rule="evenodd"/></clipPath><clipPath id="clip26"><path d="M413 356 866 356 866 620 413 620Z" fill-rule="evenodd" clip-rule="evenodd"/></clipPath><clipPath id="clip27"><path d="M413 356 866 356 866 620 413 620Z" fill-rule="evenodd" clip-rule="evenodd"/></clipPath><clipPath id="clip28"><path d="M413 356 866 356 866 620 413 620Z" fill-rule="evenodd" clip-rule="evenodd"/></clipPath><clipPath id="clip29"><path d="M413 356 866 356 866 620 413 620Z" fill-rule="evenodd" clip-rule="evenodd"/></clipPath><clipPath id="clip30"><path d="M413 356 866 356 866 620 413 620Z" fill-rule="evenodd" clip-rule="evenodd"/></clipPath><clipPath id="clip31"><path d="M413 356 866 356 866 620 413 620Z" fill-rule="evenodd" clip-rule="evenodd"/></clipPath><clipPath id="clip32"><path d="M413 356 866 356 866 620 413 620Z" fill-rule="evenodd" clip-rule="evenodd"/></clipPath><clipPath id="clip33"><path d="M462 370 846 370 846 592 462 592Z" fill-rule="evenodd" clip-rule="evenodd"/></clipPath><clipPath id="clip34"><path d="M413 356 866 356 866 620 413 620Z" fill-rule="evenodd" clip-rule="evenodd"/></clipPath><clipPath id="clip35"><path d="M462 370 846 370 846 592 462 592Z" fill-rule="evenodd" clip-rule="evenodd"/></clipPath><clipPath id="clip36"><path d="M413 356 866 356 866 620 413 620Z" fill-rule="evenodd" clip-rule="evenodd"/></clipPath><clipPath id="clip37"><path d="M413 356 866 356 866 620 413 620Z" fill-rule="evenodd" clip-rule="evenodd"/></clipPath><clipPath id="clip38"><path d="M413 356 866 356 866 620 413 620Z" fill-rule="evenodd" clip-rule="evenodd"/></clipPath><clipPath id="clip39"><path d="M413 356 866 356 866 620 413 620Z" fill-rule="evenodd" clip-rule="evenodd"/></clipPath><clipPath id="clip40"><path d="M413 356 866 356 866 620 413 620Z" fill-rule="evenodd" clip-rule="evenodd"/></clipPath><clipPath id="clip41"><path d="M413 356 866 356 866 620 413 620Z" fill-rule="evenodd" clip-rule="evenodd"/></clipPath><clipPath id="clip42"><path d="M413 356 866 356 866 620 413 620Z" fill-rule="evenodd" clip-rule="evenodd"/></clipPath><clipPath id="clip43"><path d="M413 356 866 356 866 620 413 620Z" fill-rule="evenodd" clip-rule="evenodd"/></clipPath><clipPath id="clip44"><path d="M413 356 866 356 866 620 413 620Z" fill-rule="evenodd" clip-rule="evenodd"/></clipPath><clipPath id="clip45"><path d="M413 356 866 356 866 620 413 620Z" fill-rule="evenodd" clip-rule="evenodd"/></clipPath></defs><g clip-path="url(#clip0)" transform="translate(-396 -56)"><path d="M743.5 80.5001 743.5 590.883" stroke="#000000" stroke-width="1.33333" stroke-miterlimit="8" fill="none" fill-rule="evenodd"/><g clip-path="url(#clip1)"><path d="M462.5 318.5 845.5 318.5M462.5 273.5 845.5 273.5M462.5 229.5 845.5 229.5M462.5 185.5 845.5 185.5M462.5 141.5 845.5 141.5" stroke="#BFBFBF" stroke-linejoin="round" stroke-miterlimit="10" fill="none"/></g><g clip-path="url(#clip2)"><path d="M462.5 295.5 845.5 295.5M462.5 251.5 845.5 251.5M462.5 207.5 845.5 207.5M462.5 163.5 845.5 163.5M462.5 119.5 845.5 119.5" stroke="#BFBFBF" stroke-width="0.666667" stroke-linejoin="round" stroke-miterlimit="10" fill="none"/></g><g clip-path="url(#clip3)"><path d="M526.5 119.5 526.5 340.5M590.5 119.5 590.5 340.5M654.5 119.5 654.5 340.5M717.5 119.5 717.5 340.5M781.5 119.5 781.5 340.5M845.5 119.5 845.5 340.5" stroke="#BFBFBF" stroke-width="0.666667" stroke-linejoin="round" stroke-miterlimit="10" fill="none"/></g><g clip-path="url(#clip4)"><rect x="462.5" y="119.5" width="383" height="221" stroke="#000000" stroke-width="0.666667" stroke-linejoin="round" stroke-miterlimit="10" fill="none"/></g><g clip-path="url(#clip5)"><path d="M0 0 0.000104987 221" stroke="#000000" stroke-width="0.666667" stroke-linejoin="round" stroke-miterlimit="10" fill="none" fill-rule="evenodd" transform="matrix(1 0 0 -1 462.5 340.5)"/></g><g clip-path="url(#clip6)"><path d="M460.5 340.5 462.5 340.5M460.5 318.5 462.5 318.5M460.5 295.5 462.5 295.5M460.5 273.5 462.5 273.5M460.5 251.5 462.5 251.5M460.5 229.5 462.5 229.5M460.5 207.5 462.5 207.5M460.5 185.5 462.5 185.5M460.5 163.5 462.5 163.5M460.5 141.5 462.5 141.5M460.5 119.5 462.5 119.5M459.5 340.5 462.5 340.5M459.5 295.5 462.5 295.5M459.5 251.5 462.5 251.5M459.5 207.5 462.5 207.5M459.5 163.5 462.5 163.5M459.5 119.5 462.5 119.5" stroke="#000000" stroke-width="0.666667" stroke-linejoin="round" stroke-miterlimit="10" fill="none"/></g><g clip-path="url(#clip7)"><path d="M462.5 340.5 845.5 340.5" stroke="#000000" stroke-width="0.666667" stroke-linejoin="round" stroke-miterlimit="10" fill="none" fill-rule="evenodd"/></g><g clip-path="url(#clip8)"><path d="M462.5 340.5 462.5 343.5M526.5 340.5 526.5 343.5M590.5 340.5 590.5 343.5M654.5 340.5 654.5 343.5M717.5 340.5 717.5 343.5M781.5 340.5 781.5 343.5M845.5 340.5 845.5 343.5" stroke="#000000" stroke-width="0.666667" stroke-linejoin="round" stroke-miterlimit="10" fill="none"/></g><g clip-path="url(#clip9)"><path d="M463 910 476 371 488 286 501 261 514 254 527 235 539 227 552 224 565 220 578 220 590 211 603 211 616 207 629 203 641 207 654 204 667 200 680 205 692 202 705 147 718 146 731 145 743 144 756 143 769 142 782 142 794 141 807 140" stroke="#4472C4" stroke-width="2" stroke-linecap="round" stroke-linejoin="round" stroke-miterlimit="10" fill="none"/></g><g clip-path="url(#clip10)"><path d="M491.728 286.152C491.728 287.993 490.236 289.486 488.395 289.486 486.554 289.486 485.062 287.993 485.062 286.152 485.062 284.311 486.554 282.819 488.395 282.819 490.236 282.819 491.728 284.311 491.728 286.152Z" stroke="#4472C4" stroke-linejoin="round" stroke-miterlimit="10" fill="#4472C4"/><path d="M504.562 260.819C504.562 262.66 503.069 264.152 501.228 264.152 499.387 264.152 497.895 262.66 497.895 260.819 497.895 258.978 499.387 257.486 501.228 257.486 503.069 257.486 504.562 258.978 504.562 260.819Z" stroke="#4472C4" stroke-linejoin="round" stroke-miterlimit="10" fill="#4472C4"/><path d="M517.228 253.486C517.228 255.327 515.736 256.819 513.895 256.819 512.054 256.819 510.562 255.327 510.562 253.486 510.562 251.645 512.054 250.152 513.895 250.152 515.736 250.152 517.228 251.645 517.228 253.486Z" stroke="#4472C4" stroke-linejoin="round" stroke-miterlimit="10" fill="#4472C4"/><path d="M530.062 234.652C530.062 236.493 528.569 237.986 526.728 237.986 524.887 237.986 523.395 236.493 523.395 234.652 523.395 232.811 524.887 231.319 526.728 231.319 528.569 231.319 530.062 232.811 530.062 234.652Z" stroke="#4472C4" stroke-linejoin="round" stroke-miterlimit="10" fill="#4472C4"/><path d="M542.728 227.319C542.728 229.16 541.236 230.652 539.395 230.652 537.554 230.652 536.062 229.16 536.062 227.319 536.062 225.478 537.554 223.986 539.395 223.986 541.236 223.986 542.728 225.478 542.728 227.319Z" stroke="#4472C4" stroke-linejoin="round" stroke-miterlimit="10" fill="#4472C4"/><path d="M555.562 223.486C555.562 225.327 554.069 226.819 552.228 226.819 550.387 226.819 548.895 225.327 548.895 223.486 548.895 221.645 550.387 220.152 552.228 220.152 554.069 220.152 555.562 221.645 555.562 223.486Z" stroke="#4472C4" stroke-linejoin="round" stroke-miterlimit="10" fill="#4472C4"/><path d="M568.228 219.986C568.228 221.827 566.736 223.319 564.895 223.319 563.054 223.319 561.562 221.827 561.562 219.986 561.562 218.145 563.054 216.652 564.895 216.652 566.736 216.652 568.228 218.145 568.228 219.986Z" stroke="#4472C4" stroke-linejoin="round" stroke-miterlimit="10" fill="#4472C4"/><path d="M581.062 219.486C581.062 221.327 579.569 222.819 577.728 222.819 575.887 222.819 574.395 221.327 574.395 219.486 574.395 217.645 575.887 216.152 577.728 216.152 579.569 216.152 581.062 217.645 581.062 219.486Z" stroke="#4472C4" stroke-linejoin="round" stroke-miterlimit="10" fill="#4472C4"/><path d="M593.728 210.986C593.728 212.827 592.236 214.319 590.395 214.319 588.554 214.319 587.062 212.827 587.062 210.986 587.062 209.145 588.554 207.652 590.395 207.652 592.236 207.652 593.728 209.145 593.728 210.986Z" stroke="#4472C4" stroke-linejoin="round" stroke-miterlimit="10" fill="#4472C4"/><path d="M606.562 210.652C606.562 212.493 605.069 213.986 603.228 213.986 601.387 213.986 599.895 212.493 599.895 210.652 599.895 208.811 601.387 207.319 603.228 207.319 605.069 207.319 606.562 208.811 606.562 210.652Z" stroke="#4472C4" stroke-linejoin="round" stroke-miterlimit="10" fill="#4472C4"/><path d="M619.228 206.986C619.228 208.827 617.736 210.319 615.895 210.319 614.054 210.319 612.562 208.827 612.562 206.986 612.562 205.145 614.054 203.652 615.895 203.652 617.736 203.652 619.228 205.145 619.228 206.986Z" stroke="#4472C4" stroke-linejoin="round" stroke-miterlimit="10" fill="#4472C4"/><path d="M632.062 202.986C632.062 204.827 630.569 206.319 628.728 206.319 626.887 206.319 625.395 204.827 625.395 202.986 625.395 201.145 626.887 199.652 628.728 199.652 630.569 199.652 632.062 201.145 632.062 202.986Z" stroke="#4472C4" stroke-linejoin="round" stroke-miterlimit="10" fill="#4472C4"/><path d="M644.728 207.319C644.728 209.16 643.236 210.652 641.395 210.652 639.554 210.652 638.062 209.16 638.062 207.319 638.062 205.478 639.554 203.986 641.395 203.986 643.236 203.986 644.728 205.478 644.728 207.319Z" stroke="#4472C4" stroke-linejoin="round" stroke-miterlimit="10" fill="#4472C4"/><path d="M657.562 203.652C657.562 205.493 656.069 206.986 654.228 206.986 652.387 206.986 650.895 205.493 650.895 203.652 650.895 201.811 652.387 200.319 654.228 200.319 656.069 200.319 657.562 201.811 657.562 203.652Z" stroke="#4472C4" stroke-linejoin="round" stroke-miterlimit="10" fill="#4472C4"/><path d="M670.395 199.652C670.395 201.493 668.903 202.986 667.062 202.986 665.221 202.986 663.728 201.493 663.728 199.652 663.728 197.811 665.221 196.319 667.062 196.319 668.903 196.319 670.395 197.811 670.395 199.652Z" stroke="#4472C4" stroke-linejoin="round" stroke-miterlimit="10" fill="#4472C4"/><path d="M683.062 204.652C683.062 206.493 681.569 207.986 679.728 207.986 677.887 207.986 676.395 206.493 676.395 204.652 676.395 202.811 677.887 201.319 679.728 201.319 681.569 201.319 683.062 202.811 683.062 204.652Z" stroke="#4472C4" stroke-linejoin="round" stroke-miterlimit="10" fill="#4472C4"/><path d="M695.895 201.819C695.895 203.66 694.403 205.152 692.562 205.152 690.721 205.152 689.228 203.66 689.228 201.819 689.228 199.978 690.721 198.486 692.562 198.486 694.403 198.486 695.895 199.978 695.895 201.819Z" stroke="#4472C4" stroke-linejoin="round" stroke-miterlimit="10" fill="#4472C4"/><path d="M708.562 147.486C708.562 149.327 707.069 150.819 705.228 150.819 703.387 150.819 701.895 149.327 701.895 147.486 701.895 145.645 703.387 144.152 705.228 144.152 707.069 144.152 708.562 145.645 708.562 147.486Z" stroke="#4472C4" stroke-linejoin="round" stroke-miterlimit="10" fill="#4472C4"/><path d="M721.395 146.152C721.395 147.993 719.903 149.486 718.062 149.486 716.221 149.486 714.728 147.993 714.728 146.152 714.728 144.311 716.221 142.819 718.062 142.819 719.903 142.819 721.395 144.311 721.395 146.152Z" stroke="#4472C4" stroke-linejoin="round" stroke-miterlimit="10" fill="#4472C4"/><path d="M734.062 144.652C734.062 146.493 732.569 147.986 730.728 147.986 728.887 147.986 727.395 146.493 727.395 144.652 727.395 142.811 728.887 141.319 730.728 141.319 732.569 141.319 734.062 142.811 734.062 144.652Z" stroke="#4472C4" stroke-linejoin="round" stroke-miterlimit="10" fill="#4472C4"/><path d="M746.895 143.652C746.895 145.493 745.403 146.986 743.562 146.986 741.721 146.986 740.228 145.493 740.228 143.652 740.228 141.811 741.721 140.319 743.562 140.319 745.403 140.319 746.895 141.811 746.895 143.652Z" stroke="#4472C4" stroke-linejoin="round" stroke-miterlimit="10" fill="#4472C4"/><path d="M759.562 143.152C759.562 144.993 758.069 146.486 756.228 146.486 754.387 146.486 752.895 144.993 752.895 143.152 752.895 141.311 754.387 139.819 756.228 139.819 758.069 139.819 759.562 141.311 759.562 143.152Z" stroke="#4472C4" stroke-linejoin="round" stroke-miterlimit="10" fill="#4472C4"/><path d="M772.395 142.152C772.395 143.993 770.903 145.486 769.062 145.486 767.221 145.486 765.728 143.993 765.728 142.152 765.728 140.311 767.221 138.819 769.062 138.819 770.903 138.819 772.395 140.311 772.395 142.152Z" stroke="#4472C4" stroke-linejoin="round" stroke-miterlimit="10" fill="#4472C4"/><path d="M785.062 141.819C785.062 143.66 783.569 145.152 781.728 145.152 779.887 145.152 778.395 143.66 778.395 141.819 778.395 139.978 779.887 138.486 781.728 138.486 783.569 138.486 785.062 139.978 785.062 141.819Z" stroke="#4472C4" stroke-linejoin="round" stroke-miterlimit="10" fill="#4472C4"/><path d="M797.895 140.819C797.895 142.66 796.403 144.152 794.562 144.152 792.721 144.152 791.228 142.66 791.228 140.819 791.228 138.978 792.721 137.486 794.562 137.486 796.403 137.486 797.895 138.978 797.895 140.819Z" stroke="#4472C4" stroke-linejoin="round" stroke-miterlimit="10" fill="#4472C4"/><path d="M810.562 140.152C810.562 141.993 809.069 143.486 807.228 143.486 805.387 143.486 803.895 141.993 803.895 140.152 803.895 138.311 805.387 136.819 807.228 136.819 809.069 136.819 810.562 138.311 810.562 140.152Z" stroke="#4472C4" stroke-linejoin="round" stroke-miterlimit="10" fill="#4472C4"/></g><g clip-path="url(#clip11)"><path d="M463 907 476 371 488 287 501 263 514 256 527 240 539 234 552 232 565 230 578 233 590 227 603 228 616 227 629 226 641 232 654 231 667 230 680 236 692 237 705 147 718 146 731 146 743 146 756 146 769 146 782 147 794 147 807 148" stroke="#ED7D31" stroke-width="2" stroke-linecap="round" stroke-linejoin="round" stroke-miterlimit="10" fill="none"/></g><g clip-path="url(#clip12)"><path d="M491.728 287.486C491.728 289.327 490.236 290.819 488.395 290.819 486.554 290.819 485.062 289.327 485.062 287.486 485.062 285.645 486.554 284.152 488.395 284.152 490.236 284.152 491.728 285.645 491.728 287.486Z" stroke="#ED7D31" stroke-linejoin="round" stroke-miterlimit="10" fill="#ED7D31"/><path d="M504.562 262.652C504.562 264.493 503.069 265.986 501.228 265.986 499.387 265.986 497.895 264.493 497.895 262.652 497.895 260.811 499.387 259.319 501.228 259.319 503.069 259.319 504.562 260.811 504.562 262.652Z" stroke="#ED7D31" stroke-linejoin="round" stroke-miterlimit="10" fill="#ED7D31"/><path d="M517.228 255.652C517.228 257.493 515.736 258.986 513.895 258.986 512.054 258.986 510.562 257.493 510.562 255.652 510.562 253.811 512.054 252.319 513.895 252.319 515.736 252.319 517.228 253.811 517.228 255.652Z" stroke="#ED7D31" stroke-linejoin="round" stroke-miterlimit="10" fill="#ED7D31"/><path d="M530.062 239.652C530.062 241.493 528.569 242.986 526.728 242.986 524.887 242.986 523.395 241.493 523.395 239.652 523.395 237.811 524.887 236.319 526.728 236.319 528.569 236.319 530.062 237.811 530.062 239.652Z" stroke="#ED7D31" stroke-linejoin="round" stroke-miterlimit="10" fill="#ED7D31"/><path d="M542.728 234.152C542.728 235.993 541.236 237.486 539.395 237.486 537.554 237.486 536.062 235.993 536.062 234.152 536.062 232.311 537.554 230.819 539.395 230.819 541.236 230.819 542.728 232.311 542.728 234.152Z" stroke="#ED7D31" stroke-linejoin="round" stroke-miterlimit="10" fill="#ED7D31"/><path d="M555.562 231.986C555.562 233.827 554.069 235.319 552.228 235.319 550.387 235.319 548.895 233.827 548.895 231.986 548.895 230.145 550.387 228.652 552.228 228.652 554.069 228.652 555.562 230.145 555.562 231.986Z" stroke="#ED7D31" stroke-linejoin="round" stroke-miterlimit="10" fill="#ED7D31"/><path d="M568.228 230.319C568.228 232.16 566.736 233.652 564.895 233.652 563.054 233.652 561.562 232.16 561.562 230.319 561.562 228.478 563.054 226.986 564.895 226.986 566.736 226.986 568.228 228.478 568.228 230.319Z" stroke="#ED7D31" stroke-linejoin="round" stroke-miterlimit="10" fill="#ED7D31"/><path d="M581.062 232.652C581.062 234.493 579.569 235.986 577.728 235.986 575.887 235.986 574.395 234.493 574.395 232.652 574.395 230.811 575.887 229.319 577.728 229.319 579.569 229.319 581.062 230.811 581.062 232.652Z" stroke="#ED7D31" stroke-linejoin="round" stroke-miterlimit="10" fill="#ED7D31"/><path d="M593.728 226.819C593.728 228.66 592.236 230.152 590.395 230.152 588.554 230.152 587.062 228.66 587.062 226.819 587.062 224.978 588.554 223.486 590.395 223.486 592.236 223.486 593.728 224.978 593.728 226.819Z" stroke="#ED7D31" stroke-linejoin="round" stroke-miterlimit="10" fill="#ED7D31"/><path d="M606.562 227.986C606.562 229.827 605.069 231.319 603.228 231.319 601.387 231.319 599.895 229.827 599.895 227.986 599.895 226.145 601.387 224.652 603.228 224.652 605.069 224.652 606.562 226.145 606.562 227.986Z" stroke="#ED7D31" stroke-linejoin="round" stroke-miterlimit="10" fill="#ED7D31"/><path d="M619.228 227.319C619.228 229.16 617.736 230.652 615.895 230.652 614.054 230.652 612.562 229.16 612.562 227.319 612.562 225.478 614.054 223.986 615.895 223.986 617.736 223.986 619.228 225.478 619.228 227.319Z" stroke="#ED7D31" stroke-linejoin="round" stroke-miterlimit="10" fill="#ED7D31"/><path d="M632.062 225.986C632.062 227.827 630.569 229.319 628.728 229.319 626.887 229.319 625.395 227.827 625.395 225.986 625.395 224.145 626.887 222.652 628.728 222.652 630.569 222.652 632.062 224.145 632.062 225.986Z" stroke="#ED7D31" stroke-linejoin="round" stroke-miterlimit="10" fill="#ED7D31"/><path d="M644.728 231.486C644.728 233.327 643.236 234.819 641.395 234.819 639.554 234.819 638.062 233.327 638.062 231.486 638.062 229.645 639.554 228.152 641.395 228.152 643.236 228.152 644.728 229.645 644.728 231.486Z" stroke="#ED7D31" stroke-linejoin="round" stroke-miterlimit="10" fill="#ED7D31"/><path d="M657.562 230.819C657.562 232.66 656.069 234.152 654.228 234.152 652.387 234.152 650.895 232.66 650.895 230.819 650.895 228.978 652.387 227.486 654.228 227.486 656.069 227.486 657.562 228.978 657.562 230.819Z" stroke="#ED7D31" stroke-linejoin="round" stroke-miterlimit="10" fill="#ED7D31"/><path d="M670.395 230.152C670.395 231.993 668.903 233.486 667.062 233.486 665.221 233.486 663.728 231.993 663.728 230.152 663.728 228.311 665.221 226.819 667.062 226.819 668.903 226.819 670.395 228.311 670.395 230.152Z" stroke="#ED7D31" stroke-linejoin="round" stroke-miterlimit="10" fill="#ED7D31"/><path d="M683.062 236.486C683.062 238.327 681.569 239.819 679.728 239.819 677.887 239.819 676.395 238.327 676.395 236.486 676.395 234.645 677.887 233.152 679.728 233.152 681.569 233.152 683.062 234.645 683.062 236.486Z" stroke="#ED7D31" stroke-linejoin="round" stroke-miterlimit="10" fill="#ED7D31"/><path d="M695.895 236.986C695.895 238.827 694.403 240.319 692.562 240.319 690.721 240.319 689.228 238.827 689.228 236.986 689.228 235.145 690.721 233.652 692.562 233.652 694.403 233.652 695.895 235.145 695.895 236.986Z" stroke="#ED7D31" stroke-linejoin="round" stroke-miterlimit="10" fill="#ED7D31"/><path d="M708.562 146.486C708.562 148.327 707.069 149.819 705.228 149.819 703.387 149.819 701.895 148.327 701.895 146.486 701.895 144.645 703.387 143.152 705.228 143.152 707.069 143.152 708.562 144.645 708.562 146.486Z" stroke="#ED7D31" stroke-linejoin="round" stroke-miterlimit="10" fill="#ED7D31"/><path d="M721.395 146.152C721.395 147.993 719.903 149.486 718.062 149.486 716.221 149.486 714.728 147.993 714.728 146.152 714.728 144.311 716.221 142.819 718.062 142.819 719.903 142.819 721.395 144.311 721.395 146.152Z" stroke="#ED7D31" stroke-linejoin="round" stroke-miterlimit="10" fill="#ED7D31"/><path d="M734.062 145.652C734.062 147.493 732.569 148.986 730.728 148.986 728.887 148.986 727.395 147.493 727.395 145.652 727.395 143.811 728.887 142.319 730.728 142.319 732.569 142.319 734.062 143.811 734.062 145.652Z" stroke="#ED7D31" stroke-linejoin="round" stroke-miterlimit="10" fill="#ED7D31"/><path d="M746.895 145.819C746.895 147.66 745.403 149.152 743.562 149.152 741.721 149.152 740.228 147.66 740.228 145.819 740.228 143.978 741.721 142.486 743.562 142.486 745.403 142.486 746.895 143.978 746.895 145.819Z" stroke="#ED7D31" stroke-linejoin="round" stroke-miterlimit="10" fill="#ED7D31"/><path d="M759.562 146.319C759.562 148.16 758.069 149.652 756.228 149.652 754.387 149.652 752.895 148.16 752.895 146.319 752.895 144.478 754.387 142.986 756.228 142.986 758.069 142.986 759.562 144.478 759.562 146.319Z" stroke="#ED7D31" stroke-linejoin="round" stroke-miterlimit="10" fill="#ED7D31"/><path d="M772.395 146.319C772.395 148.16 770.903 149.652 769.062 149.652 767.221 149.652 765.728 148.16 765.728 146.319 765.728 144.478 767.221 142.986 769.062 142.986 770.903 142.986 772.395 144.478 772.395 146.319Z" stroke="#ED7D31" stroke-linejoin="round" stroke-miterlimit="10" fill="#ED7D31"/><path d="M785.062 146.819C785.062 148.66 783.569 150.152 781.728 150.152 779.887 150.152 778.395 148.66 778.395 146.819 778.395 144.978 779.887 143.486 781.728 143.486 783.569 143.486 785.062 144.978 785.062 146.819Z" stroke="#ED7D31" stroke-linejoin="round" stroke-miterlimit="10" fill="#ED7D31"/><path d="M797.895 147.319C797.895 149.16 796.403 150.652 794.562 150.652 792.721 150.652 791.228 149.16 791.228 147.319 791.228 145.478 792.721 143.986 794.562 143.986 796.403 143.986 797.895 145.478 797.895 147.319Z" stroke="#ED7D31" stroke-linejoin="round" stroke-miterlimit="10" fill="#ED7D31"/><path d="M810.562 147.486C810.562 149.327 809.069 150.819 807.228 150.819 805.387 150.819 803.895 149.327 803.895 147.486 803.895 145.645 805.387 144.152 807.228 144.152 809.069 144.152 810.562 145.645 810.562 147.486Z" stroke="#ED7D31" stroke-linejoin="round" stroke-miterlimit="10" fill="#ED7D31"/></g><g clip-path="url(#clip13)"><text fill="#595959" font-family="Arial,Arial_MSFontService,sans-serif" font-weight="400" transform="translate(428.568 344)">90%</text></g><g clip-path="url(#clip14)"><text fill="#595959" font-family="Arial,Arial_MSFontService,sans-serif" font-weight="400" transform="translate(428.568 300)">92%</text></g><g clip-path="url(#clip15)"><text fill="#595959" font-family="Arial,Arial_MSFontService,sans-serif" font-weight="400" transform="translate(428.568 256)">94%</text></g><g clip-path="url(#clip16)"><text fill="#595959" font-family="Arial,Arial_MSFontService,sans-serif" font-weight="400" transform="translate(428.568 212)">96%</text></g><g clip-path="url(#clip17)"><text fill="#595959" font-family="Arial,Arial_MSFontService,sans-serif" font-weight="400" transform="translate(428.568 168)">98%</text></g><g clip-path="url(#clip18)"><text fill="#595959" font-family="Arial,Arial_MSFontService,sans-serif" font-weight="400" transform="translate(421.895 123)">100%</text></g><g clip-path="url(#clip19)"><text fill="#595959" font-family="Arial,Arial_MSFontService,sans-serif" font-weight="400" transform="translate(459.565 358)">0</text></g><g clip-path="url(#clip20)"><text fill="#595959" font-family="Arial,Arial_MSFontService,sans-serif" font-weight="400" transform="translate(523.32 358)">5</text></g><g clip-path="url(#clip21)"><text fill="#595959" font-family="Arial,Arial_MSFontService,sans-serif" font-weight="400" transform="translate(583.738 358)">10</text></g><g clip-path="url(#clip22)"><text fill="#595959" font-family="Arial,Arial_MSFontService,sans-serif" font-weight="400" transform="translate(647.493 358)">15</text></g><g clip-path="url(#clip23)"><text fill="#595959" font-family="Arial,Arial_MSFontService,sans-serif" font-weight="400" transform="translate(711.248 358)">20</text></g><g clip-path="url(#clip24)"><text fill="#595959" font-family="Arial,Arial_MSFontService,sans-serif" font-weight="400" transform="translate(775.003 358)">25</text></g><g clip-path="url(#clip25)"><text fill="#595959" font-family="Arial,Arial_MSFontService,sans-serif" font-weight="400" transform="translate(838.758 358)">30</text></g><g clip-path="url(#clip26)"><path d="M462.5 591.5 845.5 591.5M462.5 433.5 845.5 433.5" stroke="#BFBFBF" stroke-width="0.666667" stroke-linejoin="round" stroke-miterlimit="10" fill="none"/></g><g clip-path="url(#clip27)"><path d="M526.5 370.5 526.5 591.5M589.5 370.5 589.5 591.5M653.5 370.5 653.5 591.5M717.5 370.5 717.5 591.5M781.5 370.5 781.5 591.5M845.5 370.5 845.5 591.5" stroke="#BFBFBF" stroke-width="0.666667" stroke-linejoin="round" stroke-miterlimit="10" fill="none"/></g><g clip-path="url(#clip28)"><rect x="462.5" y="370.5" width="383" height="221" stroke="#000000" stroke-width="0.666667" stroke-linejoin="round" stroke-miterlimit="10" fill="none"/></g><g clip-path="url(#clip29)"><path d="M0 0 0.000104987 221" stroke="#000000" stroke-width="0.666667" stroke-linejoin="round" stroke-miterlimit="10" fill="none" fill-rule="evenodd" transform="matrix(1 0 0 -1 462.5 591.5)"/></g><g clip-path="url(#clip30)"><path d="M459.5 591.5 462.5 591.5M459.5 543.5 462.5 543.5M459.5 516.5 462.5 516.5M459.5 496.5 462.5 496.5M459.5 481.5 462.5 481.5M459.5 468.5 462.5 468.5M459.5 458.5 462.5 458.5M459.5 448.5 462.5 448.5M459.5 440.5 462.5 440.5M459.5 433.5 462.5 433.5M459.5 386.5 462.5 386.5M459.5 370.5 462.5 370.5M458.5 591.5 462.5 591.5M458.5 433.5 462.5 433.5" stroke="#000000" stroke-width="0.666667" stroke-linejoin="round" stroke-miterlimit="10" fill="none"/></g><g clip-path="url(#clip31)"><path d="M462.5 591.5 845.5 591.5" stroke="#000000" stroke-width="0.666667" stroke-linejoin="round" stroke-miterlimit="10" fill="none" fill-rule="evenodd"/></g><g clip-path="url(#clip32)"><path d="M462.5 591.5 462.5 595.5M526.5 591.5 526.5 595.5M589.5 591.5 589.5 595.5M653.5 591.5 653.5 595.5M717.5 591.5 717.5 595.5M781.5 591.5 781.5 595.5M845.5 591.5 845.5 595.5" stroke="#000000" stroke-width="0.666667" stroke-linejoin="round" stroke-miterlimit="10" fill="none"/></g><g clip-path="url(#clip33)"><path d="M462 357 475 412 488 436 501 446 513 450 526 459 539 463 552 465 564 468 577 467 590 473 603 474 616 476 628 479 641 476 654 479 667 482 679 479 692 481 705 539 718 543 730 547 743 550 756 552 769 555 782 557 794 561 807 564" stroke="#4472C4" stroke-width="2" stroke-linecap="round" stroke-linejoin="round" stroke-miterlimit="10" fill="none"/></g><g clip-path="url(#clip34)"><path d="M478.395 412.207C478.395 414.048 476.903 415.54 475.062 415.54 473.221 415.54 471.728 414.048 471.728 412.207 471.728 410.366 473.221 408.873 475.062 408.873 476.903 408.873 478.395 410.366 478.395 412.207Z" stroke="#4472C4" stroke-linejoin="round" stroke-miterlimit="10" fill="#4472C4"/><path d="M491.228 435.873C491.228 437.714 489.736 439.207 487.895 439.207 486.054 439.207 484.562 437.714 484.562 435.873 484.562 434.032 486.054 432.54 487.895 432.54 489.736 432.54 491.228 434.032 491.228 435.873Z" stroke="#4472C4" stroke-linejoin="round" stroke-miterlimit="10" fill="#4472C4"/><path d="M503.895 446.373C503.895 448.214 502.403 449.707 500.562 449.707 498.721 449.707 497.228 448.214 497.228 446.373 497.228 444.532 498.721 443.04 500.562 443.04 502.403 443.04 503.895 444.532 503.895 446.373Z" stroke="#4472C4" stroke-linejoin="round" stroke-miterlimit="10" fill="#4472C4"/><path d="M516.728 450.373C516.728 452.214 515.236 453.707 513.395 453.707 511.554 453.707 510.062 452.214 510.062 450.373 510.062 448.532 511.554 447.04 513.395 447.04 515.236 447.04 516.728 448.532 516.728 450.373Z" stroke="#4472C4" stroke-linejoin="round" stroke-miterlimit="10" fill="#4472C4"/><path d="M529.562 459.207C529.562 461.048 528.069 462.54 526.228 462.54 524.387 462.54 522.895 461.048 522.895 459.207 522.895 457.366 524.387 455.873 526.228 455.873 528.069 455.873 529.562 457.366 529.562 459.207Z" stroke="#4472C4" stroke-linejoin="round" stroke-miterlimit="10" fill="#4472C4"/><path d="M542.228 463.207C542.228 465.048 540.736 466.54 538.895 466.54 537.054 466.54 535.562 465.048 535.562 463.207 535.562 461.366 537.054 459.873 538.895 459.873 540.736 459.873 542.228 461.366 542.228 463.207Z" stroke="#4472C4" stroke-linejoin="round" stroke-miterlimit="10" fill="#4472C4"/><path d="M555.062 465.54C555.062 467.381 553.569 468.873 551.728 468.873 549.887 468.873 548.395 467.381 548.395 465.54 548.395 463.699 549.887 462.207 551.728 462.207 553.569 462.207 555.062 463.699 555.062 465.54Z" stroke="#4472C4" stroke-linejoin="round" stroke-miterlimit="10" fill="#4472C4"/><path d="M567.895 467.707C567.895 469.548 566.403 471.04 564.562 471.04 562.721 471.04 561.228 469.548 561.228 467.707 561.228 465.866 562.721 464.373 564.562 464.373 566.403 464.373 567.895 465.866 567.895 467.707Z" stroke="#4472C4" stroke-linejoin="round" stroke-miterlimit="10" fill="#4472C4"/><path d="M580.562 467.54C580.562 469.381 579.069 470.873 577.228 470.873 575.387 470.873 573.895 469.381 573.895 467.54 573.895 465.699 575.387 464.207 577.228 464.207 579.069 464.207 580.562 465.699 580.562 467.54Z" stroke="#4472C4" stroke-linejoin="round" stroke-miterlimit="10" fill="#4472C4"/><path d="M593.395 473.373C593.395 475.214 591.903 476.707 590.062 476.707 588.221 476.707 586.728 475.214 586.728 473.373 586.728 471.532 588.221 470.04 590.062 470.04 591.903 470.04 593.395 471.532 593.395 473.373Z" stroke="#4472C4" stroke-linejoin="round" stroke-miterlimit="10" fill="#4472C4"/><path d="M606.062 473.873C606.062 475.714 604.569 477.207 602.728 477.207 600.887 477.207 599.395 475.714 599.395 473.873 599.395 472.032 600.887 470.54 602.728 470.54 604.569 470.54 606.062 472.032 606.062 473.873Z" stroke="#4472C4" stroke-linejoin="round" stroke-miterlimit="10" fill="#4472C4"/><path d="M618.895 476.207C618.895 478.048 617.403 479.54 615.562 479.54 613.721 479.54 612.228 478.048 612.228 476.207 612.228 474.366 613.721 472.873 615.562 472.873 617.403 472.873 618.895 474.366 618.895 476.207Z" stroke="#4472C4" stroke-linejoin="round" stroke-miterlimit="10" fill="#4472C4"/><path d="M631.728 479.04C631.728 480.881 630.236 482.373 628.395 482.373 626.554 482.373 625.062 480.881 625.062 479.04 625.062 477.199 626.554 475.707 628.395 475.707 630.236 475.707 631.728 477.199 631.728 479.04Z" stroke="#4472C4" stroke-linejoin="round" stroke-miterlimit="10" fill="#4472C4"/><path d="M644.395 476.54C644.395 478.381 642.903 479.873 641.062 479.873 639.221 479.873 637.728 478.381 637.728 476.54 637.728 474.699 639.221 473.207 641.062 473.207 642.903 473.207 644.395 474.699 644.395 476.54Z" stroke="#4472C4" stroke-linejoin="round" stroke-miterlimit="10" fill="#4472C4"/><path d="M657.228 479.207C657.228 481.048 655.736 482.54 653.895 482.54 652.054 482.54 650.562 481.048 650.562 479.207 650.562 477.366 652.054 475.873 653.895 475.873 655.736 475.873 657.228 477.366 657.228 479.207Z" stroke="#4472C4" stroke-linejoin="round" stroke-miterlimit="10" fill="#4472C4"/><path d="M670.062 482.207C670.062 484.048 668.569 485.54 666.728 485.54 664.887 485.54 663.395 484.048 663.395 482.207 663.395 480.366 664.887 478.873 666.728 478.873 668.569 478.873 670.062 480.366 670.062 482.207Z" stroke="#4472C4" stroke-linejoin="round" stroke-miterlimit="10" fill="#4472C4"/><path d="M682.728 479.54C682.728 481.381 681.236 482.873 679.395 482.873 677.554 482.873 676.062 481.381 676.062 479.54 676.062 477.699 677.554 476.207 679.395 476.207 681.236 476.207 682.728 477.699 682.728 479.54Z" stroke="#4472C4" stroke-linejoin="round" stroke-miterlimit="10" fill="#4472C4"/><path d="M695.562 481.207C695.562 483.048 694.069 484.54 692.228 484.54 690.387 484.54 688.895 483.048 688.895 481.207 688.895 479.366 690.387 477.873 692.228 477.873 694.069 477.873 695.562 479.366 695.562 481.207Z" stroke="#4472C4" stroke-linejoin="round" stroke-miterlimit="10" fill="#4472C4"/><path d="M708.395 539.207C708.395 541.048 706.903 542.54 705.062 542.54 703.221 542.54 701.728 541.048 701.728 539.207 701.728 537.366 703.221 535.873 705.062 535.873 706.903 535.873 708.395 537.366 708.395 539.207Z" stroke="#4472C4" stroke-linejoin="round" stroke-miterlimit="10" fill="#4472C4"/><path d="M721.062 543.207C721.062 545.048 719.569 546.54 717.728 546.54 715.887 546.54 714.395 545.048 714.395 543.207 714.395 541.366 715.887 539.873 717.728 539.873 719.569 539.873 721.062 541.366 721.062 543.207Z" stroke="#4472C4" stroke-linejoin="round" stroke-miterlimit="10" fill="#4472C4"/><path d="M733.895 547.04C733.895 548.881 732.403 550.373 730.562 550.373 728.721 550.373 727.228 548.881 727.228 547.04 727.228 545.199 728.721 543.707 730.562 543.707 732.403 543.707 733.895 545.199 733.895 547.04Z" stroke="#4472C4" stroke-linejoin="round" stroke-miterlimit="10" fill="#4472C4"/><path d="M746.562 550.207C746.562 552.048 745.069 553.54 743.228 553.54 741.387 553.54 739.895 552.048 739.895 550.207 739.895 548.366 741.387 546.873 743.228 546.873 745.069 546.873 746.562 548.366 746.562 550.207Z" stroke="#4472C4" stroke-linejoin="round" stroke-miterlimit="10" fill="#4472C4"/><path d="M759.395 552.207C759.395 554.048 757.903 555.54 756.062 555.54 754.221 555.54 752.728 554.048 752.728 552.207 752.728 550.366 754.221 548.873 756.062 548.873 757.903 548.873 759.395 550.366 759.395 552.207Z" stroke="#4472C4" stroke-linejoin="round" stroke-miterlimit="10" fill="#4472C4"/><path d="M772.228 555.207C772.228 557.048 770.736 558.54 768.895 558.54 767.054 558.54 765.562 557.048 765.562 555.207 765.562 553.366 767.054 551.873 768.895 551.873 770.736 551.873 772.228 553.366 772.228 555.207Z" stroke="#4472C4" stroke-linejoin="round" stroke-miterlimit="10" fill="#4472C4"/><path d="M784.895 557.207C784.895 559.048 783.403 560.54 781.562 560.54 779.721 560.54 778.228 559.048 778.228 557.207 778.228 555.366 779.721 553.873 781.562 553.873 783.403 553.873 784.895 555.366 784.895 557.207Z" stroke="#4472C4" stroke-linejoin="round" stroke-miterlimit="10" fill="#4472C4"/><path d="M797.728 560.873C797.728 562.714 796.236 564.207 794.395 564.207 792.554 564.207 791.062 562.714 791.062 560.873 791.062 559.032 792.554 557.54 794.395 557.54 796.236 557.54 797.728 559.032 797.728 560.873Z" stroke="#4472C4" stroke-linejoin="round" stroke-miterlimit="10" fill="#4472C4"/><path d="M810.562 563.707C810.562 565.548 809.069 567.04 807.228 567.04 805.387 567.04 803.895 565.548 803.895 563.707 803.895 561.866 805.387 560.373 807.228 560.373 809.069 560.373 810.562 561.866 810.562 563.707Z" stroke="#4472C4" stroke-linejoin="round" stroke-miterlimit="10" fill="#4472C4"/></g><g clip-path="url(#clip35)"><path d="M462 357 475 412 488 435 501 445 513 449 526 456 539 459 552 460 564 461 577 458 590 462 603 461 616 461 628 462 641 459 654 459 667 459 679 456 692 453 705 541 718 543 730 544 743 544 756 543 769 542 782 541 794 540 807 539" stroke="#ED7D31" stroke-width="2" stroke-linecap="round" stroke-linejoin="round" stroke-miterlimit="10" fill="none"/></g><g clip-path="url(#clip36)"><path d="M478.395 412.04C478.395 413.881 476.903 415.373 475.062 415.373 473.221 415.373 471.728 413.881 471.728 412.04 471.728 410.199 473.221 408.707 475.062 408.707 476.903 408.707 478.395 410.199 478.395 412.04Z" stroke="#ED7D31" stroke-linejoin="round" stroke-miterlimit="10" fill="#ED7D31"/><path d="M491.228 435.207C491.228 437.048 489.736 438.54 487.895 438.54 486.054 438.54 484.562 437.048 484.562 435.207 484.562 433.366 486.054 431.873 487.895 431.873 489.736 431.873 491.228 433.366 491.228 435.207Z" stroke="#ED7D31" stroke-linejoin="round" stroke-miterlimit="10" fill="#ED7D31"/><path d="M503.895 445.207C503.895 447.048 502.403 448.54 500.562 448.54 498.721 448.54 497.228 447.048 497.228 445.207 497.228 443.366 498.721 441.873 500.562 441.873 502.403 441.873 503.895 443.366 503.895 445.207Z" stroke="#ED7D31" stroke-linejoin="round" stroke-miterlimit="10" fill="#ED7D31"/><path d="M516.728 448.873C516.728 450.714 515.236 452.207 513.395 452.207 511.554 452.207 510.062 450.714 510.062 448.873 510.062 447.032 511.554 445.54 513.395 445.54 515.236 445.54 516.728 447.032 516.728 448.873Z" stroke="#ED7D31" stroke-linejoin="round" stroke-miterlimit="10" fill="#ED7D31"/><path d="M529.562 456.207C529.562 458.048 528.069 459.54 526.228 459.54 524.387 459.54 522.895 458.048 522.895 456.207 522.895 454.366 524.387 452.873 526.228 452.873 528.069 452.873 529.562 454.366 529.562 456.207Z" stroke="#ED7D31" stroke-linejoin="round" stroke-miterlimit="10" fill="#ED7D31"/><path d="M542.228 458.707C542.228 460.548 540.736 462.04 538.895 462.04 537.054 462.04 535.562 460.548 535.562 458.707 535.562 456.866 537.054 455.373 538.895 455.373 540.736 455.373 542.228 456.866 542.228 458.707Z" stroke="#ED7D31" stroke-linejoin="round" stroke-miterlimit="10" fill="#ED7D31"/><path d="M555.062 459.873C555.062 461.714 553.569 463.207 551.728 463.207 549.887 463.207 548.395 461.714 548.395 459.873 548.395 458.032 549.887 456.54 551.728 456.54 553.569 456.54 555.062 458.032 555.062 459.873Z" stroke="#ED7D31" stroke-linejoin="round" stroke-miterlimit="10" fill="#ED7D31"/><path d="M567.895 460.707C567.895 462.548 566.403 464.04 564.562 464.04 562.721 464.04 561.228 462.548 561.228 460.707 561.228 458.866 562.721 457.373 564.562 457.373 566.403 457.373 567.895 458.866 567.895 460.707Z" stroke="#ED7D31" stroke-linejoin="round" stroke-miterlimit="10" fill="#ED7D31"/><path d="M580.562 458.207C580.562 460.048 579.069 461.54 577.228 461.54 575.387 461.54 573.895 460.048 573.895 458.207 573.895 456.366 575.387 454.873 577.228 454.873 579.069 454.873 580.562 456.366 580.562 458.207Z" stroke="#ED7D31" stroke-linejoin="round" stroke-miterlimit="10" fill="#ED7D31"/><path d="M593.395 462.207C593.395 464.048 591.903 465.54 590.062 465.54 588.221 465.54 586.728 464.048 586.728 462.207 586.728 460.366 588.221 458.873 590.062 458.873 591.903 458.873 593.395 460.366 593.395 462.207Z" stroke="#ED7D31" stroke-linejoin="round" stroke-miterlimit="10" fill="#ED7D31"/><path d="M606.062 461.207C606.062 463.048 604.569 464.54 602.728 464.54 600.887 464.54 599.395 463.048 599.395 461.207 599.395 459.366 600.887 457.873 602.728 457.873 604.569 457.873 606.062 459.366 606.062 461.207Z" stroke="#ED7D31" stroke-linejoin="round" stroke-miterlimit="10" fill="#ED7D31"/><path d="M618.895 461.54C618.895 463.381 617.403 464.873 615.562 464.873 613.721 464.873 612.228 463.381 612.228 461.54 612.228 459.699 613.721 458.207 615.562 458.207 617.403 458.207 618.895 459.699 618.895 461.54Z" stroke="#ED7D31" stroke-linejoin="round" stroke-miterlimit="10" fill="#ED7D31"/><path d="M631.728 462.373C631.728 464.214 630.236 465.707 628.395 465.707 626.554 465.707 625.062 464.214 625.062 462.373 625.062 460.532 626.554 459.04 628.395 459.04 630.236 459.04 631.728 460.532 631.728 462.373Z" stroke="#ED7D31" stroke-linejoin="round" stroke-miterlimit="10" fill="#ED7D31"/><path d="M644.395 459.04C644.395 460.881 642.903 462.373 641.062 462.373 639.221 462.373 637.728 460.881 637.728 459.04 637.728 457.199 639.221 455.707 641.062 455.707 642.903 455.707 644.395 457.199 644.395 459.04Z" stroke="#ED7D31" stroke-linejoin="round" stroke-miterlimit="10" fill="#ED7D31"/><path d="M657.228 459.207C657.228 461.048 655.736 462.54 653.895 462.54 652.054 462.54 650.562 461.048 650.562 459.207 650.562 457.366 652.054 455.873 653.895 455.873 655.736 455.873 657.228 457.366 657.228 459.207Z" stroke="#ED7D31" stroke-linejoin="round" stroke-miterlimit="10" fill="#ED7D31"/><path d="M670.062 458.873C670.062 460.714 668.569 462.207 666.728 462.207 664.887 462.207 663.395 460.714 663.395 458.873 663.395 457.032 664.887 455.54 666.728 455.54 668.569 455.54 670.062 457.032 670.062 458.873Z" stroke="#ED7D31" stroke-linejoin="round" stroke-miterlimit="10" fill="#ED7D31"/><path d="M682.728 455.707C682.728 457.548 681.236 459.04 679.395 459.04 677.554 459.04 676.062 457.548 676.062 455.707 676.062 453.866 677.554 452.373 679.395 452.373 681.236 452.373 682.728 453.866 682.728 455.707Z" stroke="#ED7D31" stroke-linejoin="round" stroke-miterlimit="10" fill="#ED7D31"/><path d="M695.562 452.707C695.562 454.548 694.069 456.04 692.228 456.04 690.387 456.04 688.895 454.548 688.895 452.707 688.895 450.866 690.387 449.373 692.228 449.373 694.069 449.373 695.562 450.866 695.562 452.707Z" stroke="#ED7D31" stroke-linejoin="round" stroke-miterlimit="10" fill="#ED7D31"/><path d="M708.395 541.373C708.395 543.214 706.903 544.707 705.062 544.707 703.221 544.707 701.728 543.214 701.728 541.373 701.728 539.532 703.221 538.04 705.062 538.04 706.903 538.04 708.395 539.532 708.395 541.373Z" stroke="#ED7D31" stroke-linejoin="round" stroke-miterlimit="10" fill="#ED7D31"/><path d="M721.062 542.54C721.062 544.381 719.569 545.873 717.728 545.873 715.887 545.873 714.395 544.381 714.395 542.54 714.395 540.699 715.887 539.207 717.728 539.207 719.569 539.207 721.062 540.699 721.062 542.54Z" stroke="#ED7D31" stroke-linejoin="round" stroke-miterlimit="10" fill="#ED7D31"/><path d="M733.895 543.707C733.895 545.548 732.403 547.04 730.562 547.04 728.721 547.04 727.228 545.548 727.228 543.707 727.228 541.866 728.721 540.373 730.562 540.373 732.403 540.373 733.895 541.866 733.895 543.707Z" stroke="#ED7D31" stroke-linejoin="round" stroke-miterlimit="10" fill="#ED7D31"/><path d="M746.562 543.707C746.562 545.548 745.069 547.04 743.228 547.04 741.387 547.04 739.895 545.548 739.895 543.707 739.895 541.866 741.387 540.373 743.228 540.373 745.069 540.373 746.562 541.866 746.562 543.707Z" stroke="#ED7D31" stroke-linejoin="round" stroke-miterlimit="10" fill="#ED7D31"/><path d="M759.395 543.207C759.395 545.048 757.903 546.54 756.062 546.54 754.221 546.54 752.728 545.048 752.728 543.207 752.728 541.366 754.221 539.873 756.062 539.873 757.903 539.873 759.395 541.366 759.395 543.207Z" stroke="#ED7D31" stroke-linejoin="round" stroke-miterlimit="10" fill="#ED7D31"/><path d="M772.228 542.54C772.228 544.381 770.736 545.873 768.895 545.873 767.054 545.873 765.562 544.381 765.562 542.54 765.562 540.699 767.054 539.207 768.895 539.207 770.736 539.207 772.228 540.699 772.228 542.54Z" stroke="#ED7D31" stroke-linejoin="round" stroke-miterlimit="10" fill="#ED7D31"/><path d="M784.895 541.373C784.895 543.214 783.403 544.707 781.562 544.707 779.721 544.707 778.228 543.214 778.228 541.373 778.228 539.532 779.721 538.04 781.562 538.04 783.403 538.04 784.895 539.532 784.895 541.373Z" stroke="#ED7D31" stroke-linejoin="round" stroke-miterlimit="10" fill="#ED7D31"/><path d="M797.728 540.04C797.728 541.881 796.236 543.373 794.395 543.373 792.554 543.373 791.062 541.881 791.062 540.04 791.062 538.199 792.554 536.707 794.395 536.707 796.236 536.707 797.728 538.199 797.728 540.04Z" stroke="#ED7D31" stroke-linejoin="round" stroke-miterlimit="10" fill="#ED7D31"/><path d="M810.562 538.707C810.562 540.548 809.069 542.04 807.228 542.04 805.387 542.04 803.895 540.548 803.895 538.707 803.895 536.866 805.387 535.373 807.228 535.373 809.069 535.373 810.562 536.866 810.562 538.707Z" stroke="#ED7D31" stroke-linejoin="round" stroke-miterlimit="10" fill="#ED7D31"/></g><g clip-path="url(#clip37)"><text fill="#595959" font-family="Arial,Arial_MSFontService,sans-serif" font-weight="400" transform="translate(428.568 595)">0.02</text></g><g clip-path="url(#clip38)"><text fill="#595959" font-family="Arial,Arial_MSFontService,sans-serif" font-weight="400" transform="translate(435.242 438)">0.2</text></g><g clip-path="url(#clip39)"><text fill="#595959" font-family="Arial,Arial_MSFontService,sans-serif" font-weight="400" transform="translate(458.905 610)">0</text></g><g clip-path="url(#clip40)"><text fill="#595959" font-family="Arial,Arial_MSFontService,sans-serif" font-weight="400" transform="translate(522.77 610)">5</text></g><g clip-path="url(#clip41)"><text fill="#595959" font-family="Arial,Arial_MSFontService,sans-serif" font-weight="400" transform="translate(583.298 610)">10</text></g><g clip-path="url(#clip42)"><text fill="#595959" font-family="Arial,Arial_MSFontService,sans-serif" font-weight="400" transform="translate(647.163 610)">15</text></g><g clip-path="url(#clip43)"><text fill="#595959" font-family="Arial,Arial_MSFontService,sans-serif" font-weight="400" transform="translate(711.028 610)">20</text></g><g clip-path="url(#clip44)"><text fill="#595959" font-family="Arial,Arial_MSFontService,sans-serif" font-weight="400" transform="translate(774.893 610)">25</text></g><g clip-path="url(#clip45)"><text fill="#595959" font-family="Arial,Arial_MSFontService,sans-serif" font-weight="400" transform="translate(838.758 610)">30</text></g><rect x="460" y="95" width="236" height="18" fill="#70AD47" fill-opacity="0.501961"/><text fill="#70AD47" font-family="Arial,Arial_MSFontService,sans-serif" font-weight="700" font-size="15" transform="translate(552.035 109)">Stage 1</text><rect x="696" y="95" width="150" height="18" fill="#5B9BD5" fill-opacity="0.501961"/><text fill="#5B9BD5" font-family="Arial,Arial_MSFontService,sans-serif" font-weight="700" font-size="15" transform="translate(745.166 109)">Stage 2<tspan fill="#000000" font-weight="400" font-size="13" x="-110.763" y="521">Epoch</tspan></text><text font-family="Arial,Arial_MSFontService,sans-serif" font-weight="400" font-size="13" transform="matrix(-1.83697e-16 -1 1 -1.83697e-16 413.535 256)">Accuracy<tspan x="-251" y="-6.10352e-05">Loss</tspan></text><text fill="#4472C4" font-family="Arial,Arial_MSFontService,sans-serif" font-weight="700" font-size="15" transform="translate(886.931 141)">Training<tspan fill="#ED7D31" x="0" y="16">Test</tspan></text><path d="M864 135.5C864 133.015 866.239 131 869 131 871.761 131 874 133.015 874 135.5 874 137.985 871.761 140 869 140 866.239 140 864 137.985 864 135.5Z" fill="#4472C4" fill-rule="evenodd"/><path d="M858 136 880.677 136" stroke="#4472C4" stroke-width="2" stroke-miterlimit="8" fill="none" fill-rule="evenodd"/><path d="M864 152C864 149.239 866.239 147 869 147 871.761 147 874 149.239 874 152 874 154.761 871.761 157 869 157 866.239 157 864 154.761 864 152Z" fill="#ED7D31" fill-rule="evenodd"/><path d="M858 152 880.677 152" stroke="#ED7D31" stroke-width="2" stroke-miterlimit="8" fill="none" fill-rule="evenodd"/><text font-family="Arial,Arial_MSFontService,sans-serif" font-weight="700" font-size="15" transform="translate(703.782 75)">Best model</text></g></svg>