<svg width="456" height="111" xmlns="http://www.w3.org/2000/svg" xmlns:xlink="http://www.w3.org/1999/xlink" overflow="hidden"><defs><clipPath id="clip0"><path d="M328 310 784 310 784 421 328 421Z" fill-rule="evenodd" clip-rule="evenodd"/></clipPath></defs><g clip-path="url(#clip0)" transform="translate(-328 -310)"><text fill="#BFBFBF" font-family="Consolas,Consolas_MSFontService,sans-serif" font-weight="400" font-size="16" transform="translate(494.4 366)">------<tspan fill="#FF0000" x="53" y="0">+</tspan><tspan fill="#FFC5C5" x="61.8333" y="0">--</tspan><tspan fill="#FF0000" x="79.5" y="0">+</tspan><tspan fill="#FFC5C5" x="88.3333" y="0">--</tspan><tspan fill="#FF0000" x="106" y="0">+</tspan><tspan fill="#FFC5C5" x="114.833" y="0">--</tspan><tspan fill="#FF0000" x="132.5" y="0">+</tspan><tspan fill="#FFC5C5" x="141.333" y="0">--</tspan><tspan fill="#FF0000" x="159" y="0">+</tspan><tspan fill="#FFC5C5" x="167.833" y="0">--</tspan><tspan x="0" y="19">GAACTT</tspan><tspan fill="#FF0000" x="53" y="19">A</tspan><tspan fill="#FFC5C5" x="61.8333" y="19">TG</tspan><tspan fill="#FF0000" x="79.5" y="19">G</tspan><tspan fill="#FFC5C5" x="88.3333" y="19">AT</tspan><tspan fill="#FF0000" x="106" y="19">T</tspan><tspan fill="#FFC5C5" x="114.833" y="19">TG</tspan><tspan fill="#FF0000" x="132.5" y="19">T</tspan><tspan fill="#FFC5C5" x="141.333" y="19">TT</tspan><tspan fill="#FF0000" x="159" y="19">A</tspan><tspan fill="#FFC5C5" x="167.833" y="19">TG</tspan></text><path d="M547 389.25 738.866 389.25 738.866 379 783 399.5 738.866 420 738.866 409.75 547 409.75Z" fill="#FF7F7F" fill-rule="evenodd"/><text font-family="Arial,Arial_MSFontService,sans-serif" font-weight="700" font-size="16" transform="translate(637.232 406)">CDS<tspan font-family="Consolas,Consolas_MSFontService,sans-serif" font-weight="400" x="-103.247" y="-76">1000</tspan></text><path d="M552.5 334.5 552.5 353.398" stroke="#000000" stroke-width="0.666667" stroke-miterlimit="8" fill="none" fill-rule="evenodd"/><text fill="#404040" font-family="Consolas,Consolas_MSFontService,sans-serif" font-weight="400" font-size="16" transform="translate(435.686 366)">Label:<tspan x="-26.5" y="19">Sequence:</tspan><tspan x="-97.1901" y="-36">Genomic position:</tspan></text></g></svg>