<svg width="1047" height="300" xmlns="http://www.w3.org/2000/svg" xmlns:xlink="http://www.w3.org/1999/xlink" overflow="hidden"><defs><clipPath id="clip0"><path d="M117 242 1164 242 1164 542 117 542Z" fill-rule="evenodd" clip-rule="evenodd"/></clipPath></defs><g clip-path="url(#clip0)" transform="translate(-117 -242)"><path d="M5.50228e-06-1 15.0806-0.999917 15.0806 1.00008-5.50228e-06 1ZM13.7473-2.66659 19.0806 0.000104987 13.7473 2.66674Z" fill="#C00000" transform="matrix(-1 -8.74228e-08 -8.74228e-08 1 712.081 318)"/><path d="M5.50025e-06-1 15.0877-0.999917 15.0877 1.00008-5.50025e-06 1ZM13.7543-2.66659 19.0877 0.000104987 13.7543 2.66674Z" fill="#C00000" transform="matrix(-1 -8.74228e-08 -8.74228e-08 1 145.088 318)"/><rect x="145" y="281" width="75" height="75" fill="#FF7F7F"/><path d="M181.855 280.827 175.109 268.971 176.847 267.982 183.593 279.838ZM174.32 270.954 174 265 178.955 268.317Z" fill="#C00000"/><path d="M275.854 280.827 269.109 268.971 270.847 267.982 277.593 279.838ZM268.32 270.954 268 265 272.955 268.317Z" fill="#C00000"/><path d="M370.662 280.819 364.072 268.981 365.819 268.009 372.409 279.847ZM363.264 270.957 363 265 367.924 268.363Z" fill="#C00000"/><path d="M464.661 280.819 458.072 268.981 459.819 268.009 466.409 279.847ZM457.264 270.957 457 265 461.924 268.363Z" fill="#C00000"/><path d="M559.661 280.819 553.072 268.981 554.819 268.009 561.408 279.847ZM552.264 270.957 552 265 556.924 268.363Z" fill="#C00000"/><path d="M653.661 280.819 647.072 268.981 648.819 268.009 655.408 279.847ZM646.264 270.957 646 265 650.924 268.363Z" fill="#C00000"/><path d="M0.942777-0.333423 8.33255 20.5617 6.447 21.2286-0.942777 0.333423ZM9.45928 18.749 8.72346 24.6662 4.43114 20.5272Z" fill="#C00000" transform="matrix(1 0 0 -1 268 380.666)"/><path d="M0.945018-0.327019 8.17258 20.5592 6.28255 21.2132-0.945018 0.327019ZM9.31159 18.7541 8.53564 24.6662 4.27149 20.4982Z" fill="#C00000" transform="matrix(1 0 0 -1 363 380.666)"/><path d="M0.945025-0.326998 8.17205 20.5591 6.282 21.2131-0.945025 0.326998ZM9.31109 18.7541 8.53501 24.6662 4.27096 20.4981Z" fill="#C00000" transform="matrix(1 0 0 -1 457 380.666)"/><path d="M0.945031-0.32698 8.1716 20.5591 6.28154 21.2131-0.945031 0.32698ZM9.31068 18.7541 8.53449 24.6662 4.27051 20.498Z" fill="#C00000" transform="matrix(1 0 0 -1 552 380.666)"/><path d="M0.945034-0.326972 8.17142 20.5591 6.28135 21.2131-0.945034 0.326972ZM9.31051 18.7541 8.53428 24.6662 4.27033 20.498Z" fill="#C00000" transform="matrix(1 0 0 -1 646 380.666)"/><rect x="239" y="281" width="76" height="75" fill="#FF7F7F"/><rect x="334" y="281" width="75" height="75" fill="#FF7F7F"/><rect x="428" y="281" width="76" height="75" fill="#FF7F7F"/><rect x="523" y="281" width="75" height="75" fill="#FF7F7F"/><rect x="617" y="281" width="76" height="75" fill="#FF7F7F"/><path d="M5.55574e-06-1 14.897-0.999917 14.897 1.00008-5.55574e-06 1ZM13.5637-2.66659 18.897 0.000104987 13.5637 2.66674Z" fill="#C00000" transform="matrix(-1 -8.74228e-08 -8.74228e-08 1 238.897 318)"/><path d="M5.55574e-06-1 14.897-0.999917 14.897 1.00008-5.55574e-06 1ZM13.5637-2.66659 18.897 0.000104987 13.5637 2.66674Z" fill="#C00000" transform="matrix(-1 -8.74228e-08 -8.74228e-08 1 427.897 318)"/><path d="M5.55574e-06-1 14.897-0.999917 14.897 1.00008-5.55574e-06 1ZM13.5637-2.66659 18.897 0.000104987 13.5637 2.66674Z" fill="#C00000" transform="matrix(-1 -8.74228e-08 -8.74228e-08 1 522.897 318)"/><path d="M5.55565e-06-1 14.8973-0.999917 14.8973 1.00008-5.55565e-06 1ZM13.564-2.66659 18.8973 0.000104987 13.564 2.66674Z" fill="#C00000" transform="matrix(-1 -8.74228e-08 -8.74228e-08 1 616.897 318)"/><path d="M0.94277-0.333444 8.33309 20.5617 6.44755 21.2286-0.94277 0.333444ZM9.45978 18.749 8.72409 24.6662 4.43167 20.5273Z" fill="#C00000" transform="matrix(1 0 0 -1 174 380.666)"/><rect x="259.5" y="246.5" width="19" height="19" stroke="#595959" stroke-width="0.666667" stroke-miterlimit="8" fill="none"/><text fill="#595959" font-family="Consolas,Consolas_MSFontService,sans-serif" font-weight="400" font-size="15" transform="translate(264.449 261)">0</text><rect x="353.5" y="246.5" width="19" height="19" stroke="#595959" stroke-width="0.666667" stroke-miterlimit="8" fill="none"/><text fill="#595959" font-family="Consolas,Consolas_MSFontService,sans-serif" font-weight="400" font-size="15" transform="translate(358.937 261)">0</text><rect x="448.5" y="246.5" width="19" height="19" stroke="#595959" stroke-width="0.666667" stroke-miterlimit="8" fill="none"/><text fill="#595959" font-family="Consolas,Consolas_MSFontService,sans-serif" font-weight="400" font-size="15" transform="translate(453.425 261)">1</text><rect x="542.5" y="246.5" width="19" height="19" stroke="#595959" stroke-width="0.666667" stroke-miterlimit="8" fill="none"/><text fill="#595959" font-family="Consolas,Consolas_MSFontService,sans-serif" font-weight="400" font-size="15" transform="translate(547.913 261)">1</text><rect x="637.5" y="246.5" width="19" height="19" stroke="#595959" stroke-width="0.666667" stroke-miterlimit="8" fill="none"/><text fill="#595959" font-family="Consolas,Consolas_MSFontService,sans-serif" font-weight="400" font-size="15" transform="translate(642.401 261)">1</text><rect x="165.5" y="246.5" width="18" height="19" stroke="#595959" stroke-width="0.666667" stroke-miterlimit="8" fill="none"/><text fill="#595959" font-family="Consolas,Consolas_MSFontService,sans-serif" font-weight="400" font-size="15" transform="translate(169.961 261)">0</text><rect x="259.5" y="381.5" width="19" height="76" stroke="#595959" stroke-width="0.666667" stroke-miterlimit="8" fill="none"/><text fill="#595959" font-family="Consolas,Consolas_MSFontService,sans-serif" font-weight="400" font-size="15" transform="translate(264.449 398)">0<tspan x="0" y="17">0</tspan><tspan x="0" y="35">0</tspan><tspan x="0" y="53">1</tspan></text><rect x="353.5" y="381.5" width="19" height="76" stroke="#595959" stroke-width="0.666667" stroke-miterlimit="8" fill="none"/><text fill="#595959" font-family="Consolas,Consolas_MSFontService,sans-serif" font-weight="400" font-size="15" transform="translate(358.937 398)">0<tspan x="0" y="17">0</tspan><tspan x="0" y="35">0</tspan><tspan x="0" y="53">1</tspan></text><rect x="448.5" y="381.5" width="19" height="76" stroke="#595959" stroke-width="0.666667" stroke-miterlimit="8" fill="none"/><text fill="#595959" font-family="Consolas,Consolas_MSFontService,sans-serif" font-weight="400" font-size="15" transform="translate(453.425 398)">1<tspan x="0" y="17">0</tspan><tspan x="0" y="35">0</tspan><tspan x="0" y="53">0</tspan></text><rect x="542.5" y="381.5" width="19" height="76" stroke="#595959" stroke-width="0.666667" stroke-miterlimit="8" fill="none"/><text fill="#595959" font-family="Consolas,Consolas_MSFontService,sans-serif" font-weight="400" font-size="15" transform="translate(547.913 398)">0<tspan x="0" y="17">0</tspan><tspan x="0" y="35">0</tspan><tspan x="0" y="53">1</tspan></text><rect x="637.5" y="381.5" width="19" height="76" stroke="#595959" stroke-width="0.666667" stroke-miterlimit="8" fill="none"/><text fill="#595959" font-family="Consolas,Consolas_MSFontService,sans-serif" font-weight="400" font-size="15" transform="translate(642.401 398)">0<tspan x="0" y="17">0</tspan><tspan x="0" y="35">1</tspan><tspan x="0" y="53">0</tspan></text><rect x="231" y="290" width="75" height="76" fill="#4472C4" fill-opacity="0.898039"/><text fill="#FFFFFF" font-family="Century Gothic,Century Gothic_MSFontService,sans-serif" font-weight="400" font-size="16" transform="translate(250.032 334)">LSTM</text><path d="M1-6.84716e-06 1.00008 11.3329-0.999922 11.3329-1 6.84716e-06ZM2.66674 9.99956 0.000104987 15.3329-2.6666 9.9996Z" fill="#4472C4" transform="matrix(1 0 0 -1 268 381.333)"/><path d="M1-4.2563e-06 1.00009 20.6662-0.999912 20.6663-1 4.2563e-06ZM2.66675 19.3329 0.000104987 24.6662-2.66658 19.3329Z" fill="#4472C4" transform="matrix(1 0 0 -1 268 289.666)"/><path d="M212 327 226.898 327 226.898 329 212 329ZM225.564 325.333 230.898 328 225.564 330.667Z" fill="#4472C4"/><rect x="165.5" y="381.5" width="18" height="76" stroke="#595959" stroke-width="0.666667" stroke-miterlimit="8" fill="none"/><text fill="#595959" font-family="Consolas,Consolas_MSFontService,sans-serif" font-weight="400" font-size="15" transform="translate(169.961 398)">0<tspan x="0" y="17">1</tspan><tspan x="0" y="35">0</tspan><tspan x="0" y="53">0</tspan></text><path d="M1-4.2563e-06 1.00009 20.6662-0.999912 20.6663-1 4.2563e-06ZM2.66675 19.3329 0.000104987 24.6662-2.66658 19.3329Z" fill="#4472C4" transform="matrix(1 0 0 -1 174 289.666)"/><rect x="420" y="290" width="75" height="76" fill="#4472C4" fill-opacity="0.898039"/><text fill="#FFFFFF" font-family="Century Gothic,Century Gothic_MSFontService,sans-serif" font-weight="400" font-size="16" transform="translate(439.009 334)">LSTM</text><rect x="514" y="290" width="76" height="76" fill="#4472C4" fill-opacity="0.898039"/><text fill="#FFFFFF" font-family="Century Gothic,Century Gothic_MSFontService,sans-serif" font-weight="400" font-size="16" transform="translate(533.497 334)">LSTM</text><rect x="609" y="290" width="75" height="76" fill="#4472C4" fill-opacity="0.898039"/><text fill="#FFFFFF" font-family="Century Gothic,Century Gothic_MSFontService,sans-serif" font-weight="400" font-size="16" transform="translate(627.985 334)">LSTM</text><path d="M306 327 320.898 327 320.898 329 306 329ZM319.564 325.333 324.898 328 319.564 330.667Z" fill="#4472C4"/><path d="M401 327 415.898 327 415.898 329 401 329ZM414.564 325.333 419.898 328 414.564 330.667Z" fill="#4472C4"/><path d="M495 327 509.898 327 509.898 329 495 329ZM508.564 325.333 513.898 328 508.564 330.667Z" fill="#4472C4"/><path d="M590 327 604.898 327 604.898 329 590 329ZM603.564 325.333 608.898 328 603.564 330.667Z" fill="#4472C4"/><path d="M1-6.84716e-06 1.00008 11.3329-0.999922 11.3329-1 6.84716e-06ZM2.66674 9.99956 0.000104987 15.3329-2.6666 9.9996Z" fill="#4472C4" transform="matrix(1 0 0 -1 363 381.333)"/><path d="M1-6.84716e-06 1.00008 11.3329-0.999922 11.3329-1 6.84716e-06ZM2.66674 9.99956 0.000104987 15.3329-2.6666 9.9996Z" fill="#4472C4" transform="matrix(1 0 0 -1 457 381.333)"/><path d="M1-6.84716e-06 1.00008 11.3329-0.999922 11.3329-1 6.84716e-06ZM2.66674 9.99956 0.000104987 15.3329-2.6666 9.9996Z" fill="#4472C4" transform="matrix(1 0 0 -1 552 381.333)"/><path d="M1-1.36943e-05 1.00016 11.3329-0.999845 11.3329-1 1.36943e-05ZM2.6668 9.99954 0.000209974 15.3329-2.66653 9.99962Z" fill="#4472C4" transform="matrix(1 0 0 -1 646 381.333)"/><path d="M1-4.2563e-06 1.00009 20.6662-0.999912 20.6663-1 4.2563e-06ZM2.66675 19.3329 0.000104987 24.6662-2.66658 19.3329Z" fill="#4472C4" transform="matrix(1 0 0 -1 363 289.666)"/><path d="M456 289.666 456 269 458 269 458 289.666ZM454.333 270.333 457 265 459.667 270.333Z" fill="#4472C4"/><path d="M551 289.666 551 269 553 269 553 289.666ZM549.333 270.333 552 265 554.667 270.333Z" fill="#4472C4"/><path d="M645.001 289.666 645 269 647 269 647.001 289.666ZM643.333 270.333 646 265 648.667 270.333Z" fill="#4472C4"/><path d="M684 327 698.897 327 698.897 329 684 329ZM697.564 325.333 702.897 328 697.564 330.667Z" fill="#4472C4"/><rect x="136" y="290" width="76" height="76" fill="#4472C4" fill-opacity="0.898039"/><text fill="#FFFFFF" font-family="Century Gothic,Century Gothic_MSFontService,sans-serif" font-weight="400" font-size="16" transform="translate(155.544 334)">LSTM</text><path d="M1-6.84716e-06 1.00008 11.3329-0.999922 11.3329-1 6.84716e-06ZM2.66674 9.99956 0.000104987 15.3329-2.6666 9.9996Z" fill="#4472C4" transform="matrix(1 0 0 -1 174 381.333)"/><path d="M117 327 131.898 327 131.898 329 117 329ZM130.564 325.333 135.898 328 130.564 330.667Z" fill="#4472C4"/><path d="M5.61133e-06-1 14.7098-0.999917 14.7098 1.00008-5.61133e-06 1ZM13.3765-2.66659 18.7098 0.000104987 13.3765 2.66674Z" fill="#C00000" transform="matrix(-1 -8.74228e-08 -8.74228e-08 1 333.71 318)"/><text fill="#595959" font-family="Consolas,Consolas_MSFontService,sans-serif" font-weight="400" font-size="32" transform="translate(165.656 487)">C<tspan x="94.4882" y="0">T</tspan><tspan x="188.976" y="0">T</tspan><tspan x="283.465" y="0">A</tspan><tspan x="377.953" y="0">T</tspan><tspan x="472.441" y="0">G</tspan><tspan fill="#000000" font-family="Arial,Arial_MSFontService,sans-serif" font-weight="700" font-size="16" x="341.757" y="42">Start codon</tspan></text><path d="M661.5 494.5C661.5 498.09 652.406 501 641.187 501L572.813 501C561.594 501 552.5 503.91 552.5 507.5 552.5 503.91 543.406 501 532.187 501L463.813 501C452.594 501 443.5 498.09 443.5 494.5" stroke="#000000" stroke-width="0.666667" stroke-miterlimit="8" fill="none" fill-rule="evenodd"/><rect x="325" y="290" width="76" height="76" fill="#4472C4" fill-opacity="0.898039"/><text fill="#FFFFFF" font-family="Century Gothic,Century Gothic_MSFontService,sans-serif" font-weight="400" font-size="16" transform="translate(344.52 334)">LSTM</text><path d="M5.50025e-06-1 15.0877-0.999917 15.0877 1.00008-5.50025e-06 1ZM13.7543-2.66659 19.0877 0.000104987 13.7543 2.66674Z" fill="#C00000" transform="matrix(-1 -8.74228e-08 -8.74228e-08 1 786.088 318)"/><rect x="786" y="281" width="75" height="75" fill="#FF7F7F"/><path d="M822.855 280.827 816.109 268.971 817.847 267.982 824.593 279.838ZM815.32 270.954 815 265 819.955 268.317Z" fill="#C00000"/><path d="M916.854 280.827 910.109 268.971 911.847 267.982 918.593 279.838ZM909.32 270.954 909 265 913.955 268.317Z" fill="#C00000"/><path d="M1011.66 280.819 1005.07 268.981 1006.82 268.009 1013.41 279.847ZM1004.26 270.957 1004 265 1008.92 268.363Z" fill="#C00000"/><path d="M1105.66 280.819 1099.07 268.981 1100.82 268.009 1107.41 279.847ZM1098.26 270.957 1098 265 1102.92 268.363Z" fill="#C00000"/><path d="M0.942777-0.333423 8.33255 20.5617 6.447 21.2286-0.942777 0.333423ZM9.45928 18.749 8.72346 24.6662 4.43114 20.5272Z" fill="#C00000" transform="matrix(1 0 0 -1 909 380.666)"/><path d="M0.945018-0.327019 8.17258 20.5592 6.28255 21.2132-0.945018 0.327019ZM9.31159 18.7541 8.53564 24.6662 4.27149 20.4982Z" fill="#C00000" transform="matrix(1 0 0 -1 1004 380.666)"/><path d="M0.945025-0.326998 8.17205 20.5591 6.282 21.2131-0.945025 0.326998ZM9.31109 18.7541 8.53501 24.6662 4.27096 20.4981Z" fill="#C00000" transform="matrix(1 0 0 -1 1098 380.666)"/><rect x="880" y="281" width="76" height="75" fill="#FF7F7F"/><rect x="975" y="281" width="75" height="75" fill="#FF7F7F"/><rect x="1069" y="281" width="76" height="75" fill="#FF7F7F"/><path d="M5.55574e-06-1 14.897-0.999917 14.897 1.00008-5.55574e-06 1ZM13.5637-2.66659 18.897 0.000104987 13.5637 2.66674Z" fill="#C00000" transform="matrix(-1 -8.74228e-08 -8.74228e-08 1 879.897 318)"/><path d="M5.55574e-06-1 14.897-0.999917 14.897 1.00008-5.55574e-06 1ZM13.5637-2.66659 18.897 0.000104987 13.5637 2.66674Z" fill="#C00000" transform="matrix(-1 -8.74228e-08 -8.74228e-08 1 1068.9 318)"/><path d="M5.55574e-06-1 14.897-0.999917 14.897 1.00008-5.55574e-06 1ZM13.5637-2.66659 18.897 0.000104987 13.5637 2.66674Z" fill="#C00000" transform="matrix(-1 -8.74228e-08 -8.74228e-08 1 1163.9 318)"/><path d="M0.94277-0.333444 8.33309 20.5617 6.44755 21.2286-0.94277 0.333444ZM9.45978 18.749 8.72409 24.6662 4.43167 20.5273Z" fill="#C00000" transform="matrix(1 0 0 -1 815 380.666)"/><rect x="900.5" y="246.5" width="19" height="19" stroke="#595959" stroke-width="0.666667" stroke-miterlimit="8" fill="none"/><text fill="#595959" font-family="Consolas,Consolas_MSFontService,sans-serif" font-weight="400" font-size="15" transform="translate(905.336 261)">1</text><rect x="994.5" y="246.5" width="19" height="19" stroke="#595959" stroke-width="0.666667" stroke-miterlimit="8" fill="none"/><text fill="#595959" font-family="Consolas,Consolas_MSFontService,sans-serif" font-weight="400" font-size="15" transform="translate(999.825 261)">1</text><rect x="1089.5" y="246.5" width="19" height="19" stroke="#595959" stroke-width="0.666667" stroke-miterlimit="8" fill="none"/><text fill="#595959" font-family="Consolas,Consolas_MSFontService,sans-serif" font-weight="400" font-size="15" transform="translate(1094.31 261)">0</text><rect x="805.5" y="246.5" width="19" height="19" stroke="#595959" stroke-width="0.666667" stroke-miterlimit="8" fill="none"/><text fill="#595959" font-family="Consolas,Consolas_MSFontService,sans-serif" font-weight="400" font-size="15" transform="translate(810.848 261)">1</text><rect x="900.5" y="381.5" width="19" height="76" stroke="#595959" stroke-width="0.666667" stroke-miterlimit="8" fill="none"/><text fill="#595959" font-family="Consolas,Consolas_MSFontService,sans-serif" font-weight="400" font-size="15" transform="translate(905.336 398)">1<tspan x="0" y="17">0</tspan><tspan x="0" y="35">0</tspan><tspan x="0" y="53">0</tspan></text><rect x="994.5" y="381.5" width="19" height="76" stroke="#595959" stroke-width="0.666667" stroke-miterlimit="8" fill="none"/><text fill="#595959" font-family="Consolas,Consolas_MSFontService,sans-serif" font-weight="400" font-size="15" transform="translate(999.825 398)">1<tspan x="0" y="17">0</tspan><tspan x="0" y="35">0</tspan><tspan x="0" y="53">0</tspan></text><rect x="1089.5" y="381.5" width="19" height="76" stroke="#595959" stroke-width="0.666667" stroke-miterlimit="8" fill="none"/><text fill="#595959" font-family="Consolas,Consolas_MSFontService,sans-serif" font-weight="400" font-size="15" transform="translate(1094.31 398)">0<tspan x="0" y="17">0</tspan><tspan x="0" y="35">1</tspan><tspan x="0" y="53">0</tspan></text><rect x="872" y="290" width="75" height="76" fill="#4472C4" fill-opacity="0.898039"/><text fill="#FFFFFF" font-family="Century Gothic,Century Gothic_MSFontService,sans-serif" font-weight="400" font-size="16" transform="translate(890.92 334)">LSTM</text><path d="M1-6.84716e-06 1.00008 11.3329-0.999922 11.3329-1 6.84716e-06ZM2.66674 9.99956 0.000104987 15.3329-2.6666 9.9996Z" fill="#4472C4" transform="matrix(1 0 0 -1 909 381.333)"/><path d="M1-4.2563e-06 1.00009 20.6662-0.999912 20.6663-1 4.2563e-06ZM2.66675 19.3329 0.000104987 24.6662-2.66658 19.3329Z" fill="#4472C4" transform="matrix(1 0 0 -1 909 289.666)"/><path d="M853 327 867.898 327 867.898 329 853 329ZM866.564 325.333 871.898 328 866.564 330.667Z" fill="#4472C4"/><rect x="805.5" y="381.5" width="19" height="76" stroke="#595959" stroke-width="0.666667" stroke-miterlimit="8" fill="none"/><text fill="#595959" font-family="Consolas,Consolas_MSFontService,sans-serif" font-weight="400" font-size="15" transform="translate(810.848 398)">0<tspan x="0" y="17">0</tspan><tspan x="0" y="35">0</tspan><tspan x="0" y="53">1</tspan></text><path d="M1-4.2563e-06 1.00009 20.6662-0.999912 20.6663-1 4.2563e-06ZM2.66675 19.3329 0.000104987 24.6662-2.66658 19.3329Z" fill="#4472C4" transform="matrix(1 0 0 -1 815 289.666)"/><rect x="1061" y="290" width="75" height="76" fill="#4472C4" fill-opacity="0.898039"/><text fill="#FFFFFF" font-family="Century Gothic,Century Gothic_MSFontService,sans-serif" font-weight="400" font-size="16" transform="translate(1079.9 334)">LSTM</text><path d="M947 327 961.898 327 961.898 329 947 329ZM960.564 325.333 965.898 328 960.564 330.667Z" fill="#4472C4"/><path d="M1042 327 1056.9 327 1056.9 329 1042 329ZM1055.56 325.333 1060.9 328 1055.56 330.667Z" fill="#4472C4"/><path d="M1136 327 1150.9 327 1150.9 329 1136 329ZM1149.56 325.333 1154.9 328 1149.56 330.667Z" fill="#4472C4"/><path d="M1-6.84716e-06 1.00008 11.3329-0.999922 11.3329-1 6.84716e-06ZM2.66674 9.99956 0.000104987 15.3329-2.6666 9.9996Z" fill="#4472C4" transform="matrix(1 0 0 -1 1004 381.333)"/><path d="M1-6.84716e-06 1.00008 11.3329-0.999922 11.3329-1 6.84716e-06ZM2.66674 9.99956 0.000104987 15.3329-2.6666 9.9996Z" fill="#4472C4" transform="matrix(1 0 0 -1 1098 381.333)"/><path d="M1-4.2563e-06 1.00009 20.6662-0.999912 20.6663-1 4.2563e-06ZM2.66675 19.3329 0.000104987 24.6662-2.66658 19.3329Z" fill="#4472C4" transform="matrix(1 0 0 -1 1004 289.666)"/><path d="M1097 289.666 1097 269 1099 269 1099 289.666ZM1095.33 270.333 1098 265 1100.67 270.333Z" fill="#4472C4"/><rect x="777" y="290" width="76" height="76" fill="#4472C4" fill-opacity="0.898039"/><text fill="#FFFFFF" font-family="Century Gothic,Century Gothic_MSFontService,sans-serif" font-weight="400" font-size="16" transform="translate(796.432 334)">LSTM</text><path d="M1-6.84716e-06 1.00008 11.3329-0.999922 11.3329-1 6.84716e-06ZM2.66674 9.99956 0.000104987 15.3329-2.6666 9.9996Z" fill="#4472C4" transform="matrix(1 0 0 -1 815 381.333)"/><path d="M758 327 772.898 327 772.898 329 758 329ZM771.564 325.333 776.898 328 771.564 330.667Z" fill="#4472C4"/><path d="M5.61133e-06-1 14.7098-0.999917 14.7098 1.00008-5.61133e-06 1ZM13.3765-2.66659 18.7098 0.000104987 13.3765 2.66674Z" fill="#C00000" transform="matrix(-1 -8.74228e-08 -8.74228e-08 1 974.71 318)"/><text fill="#595959" font-family="Consolas,Consolas_MSFontService,sans-serif" font-weight="400" font-size="32" transform="translate(806.544 487)">T<tspan x="94.4882" y="0">A</tspan><tspan x="188.976" y="0">A</tspan><tspan x="283.465" y="0">G</tspan></text><rect x="966" y="290" width="76" height="76" fill="#4472C4" fill-opacity="0.898039"/><text fill="#FFFFFF" font-family="Century Gothic,Century Gothic_MSFontService,sans-serif" font-weight="400" font-size="16" transform="translate(985.408 334)">LSTM<tspan fill="#000000" font-family="Arial,Arial_MSFontService,sans-serif" font-weight="700" x="-120.238" y="195">Stop codon</tspan></text><path d="M1019.5 494.5C1019.5 498.09 1010.41 501 999.187 501L930.813 501C919.594 501 910.5 503.91 910.5 507.5 910.5 503.91 901.406 501 890.187 501L821.813 501C810.594 501 801.5 498.09 801.5 494.5" stroke="#000000" stroke-width="0.666667" stroke-miterlimit="8" fill="none" fill-rule="evenodd"/><path d="M0 0 45.3543 0.000104987" stroke="#C00000" stroke-width="2" stroke-miterlimit="8" stroke-dasharray="2 2" fill="none" fill-rule="evenodd" transform="matrix(-1 -8.74228e-08 -8.74228e-08 1 762.354 318)"/><path d="M0 0 45.3543 0.000104987" stroke="#4472C4" stroke-width="2" stroke-miterlimit="8" stroke-dasharray="2 2" fill="none" fill-rule="evenodd" transform="matrix(-1 -8.74228e-08 -8.74228e-08 1 753.354 328)"/></g></svg>